<svg xmlns="http://www.w3.org/2000/svg" xmlns:xlink="http://www.w3.org/1999/xlink" width="138.255" height="138.26" viewBox="0 0 138.255 138.26"><defs><path id="a" d="M0 0h138.255v138.26H0z"/></defs><clipPath id="b"><use xlink:href="#a" overflow="visible"/></clipPath><path clip-path="url(#b)" fill="#0076BB" d="M136.998 115.36c0 11.95-9.694 21.64-21.64 21.64H22.894c-11.948 0-21.635-9.69-21.635-21.64V22.902c0-11.953 9.687-21.645 21.635-21.645h92.463c11.946 0 21.64 9.69 21.64 21.645v92.456z"/><path clip-path="url(#b)" fill="none" stroke="#D41673" stroke-width="3" stroke-linecap="round" d="M136.998 115.36c0 11.95-9.694 21.64-21.64 21.64H22.894c-11.948 0-21.635-9.69-21.635-21.64V22.902c0-11.953 9.687-21.645 21.635-21.645h92.463c11.946 0 21.64 9.69 21.64 21.645v92.456z"/><g fill="#fff"><path d="M41.654 19.91c0 1.54-1.71 2.517-5.13 2.93-5.41.302-10.822.602-16.233.902.226 2.556.357 4.472.396 5.75 4.133-.19 8.135-.47 12.006-.847l5.073-.507c1.58 0 2.368.678 2.368 2.033 0 1.395-1.55 2.335-4.65 2.825-1.533.264-6.37.66-14.515 1.187v5.647c0 5.91-.226 10.016-.676 12.312-.527 2.598-1.503 3.897-2.93 3.897-1.467 0-2.2-.81-2.2-2.43 0-.263.113-1.928.34-4.995.225-3.066.337-6.012.337-8.834 0-4.515-.17-8.76-.508-12.728-.338-3.97-.507-5.692-.507-5.166 0-1.618.92-2.597 2.762-2.936.3-.074 1.165-.13 2.593-.17 4.735-.187 9.207-.45 13.416-.79 3.682-.3 5.448-.45 5.298-.45 1.838 0 2.76.79 2.76 2.37zM49.32 48.938c0 2.556-.113 4.21-.335 4.96-.335 1.053-1.097 1.578-2.286 1.578-1.6 0-2.397-1.184-2.397-3.55V48.71c0-3.72-.104-7.3-.31-10.738-.207-3.438-.31-5.007-.31-4.707 0-.75.234-1.37.705-1.86.47-.487 1.06-.732 1.775-.732 1.466 0 2.31.865 2.537 2.593.412 3.42.62 8.644.62 15.67z"/></g><path fill="#fff" d="M75.247 47.632c0 1.047-1.352 2.467-4.058 4.26-4.172 2.767-7.14 4.15-8.907 4.15-1.917 0-3.213-1.2-3.89-3.6-.563-2.06-.845-5.845-.845-11.355v-5.733l-1.482.113h-.33c-1.61 0-2.416-.677-2.416-2.03 0-1.39.864-2.18 2.593-2.367l1.917-.226c.113-4.133.32-6.8.62-8.004.413-1.69 1.258-2.536 2.537-2.536 1.653 0 2.48.897 2.48 2.69 0 .038-.076.767-.226 2.186-.15 1.683-.28 3.42-.394 5.214l8.906-.677c1.54 0 2.31.696 2.31 2.086s-.92 2.16-2.76 2.31l-8.682.79c-.112 2.594-.17 5.13-.17 7.61 0 5.862.49 8.793 1.467 8.793.563 0 2.367-1.015 5.41-3.044.752-.525 1.503-1.043 2.256-1.55.75-.508 1.39-.76 1.917-.76 1.165 0 1.747.56 1.747 1.68zM45.813 75.18c0 1.582-1.023 2.45-3.07 2.604l-10.48.753.406 30.86c.037 2.01-.908 3.013-2.838 3.013-1.776 0-2.684-.984-2.722-2.953l-.405-30.515c-3.86.193-6.37.29-7.527.29-3.242 0-4.864-.85-4.864-2.55 0-1.542 1.293-2.314 3.88-2.314 3.51 0 7.796-.174 12.853-.52l12.102-.812c1.774 0 2.663.715 2.663 2.143z"/><g fill="#fff"><path d="M71.406 97.123c0 4.054-2.162 7.837-6.485 11.35-3.628 2.934-7.758 4.4-12.39 4.4-3.784 0-6.833-1.023-9.148-3.07-2.316-2.044-3.474-4.688-3.474-7.932 0-4.36 2.084-8.278 6.253-11.753 3.36-2.817 7.315-4.227 11.87-4.227 3.9 0 7.103 1.08 9.613 3.242 2.508 2.163 3.763 4.827 3.763 7.99zm-5.326.196c0-1.937-.782-3.592-2.345-4.967s-3.484-2.062-5.76-2.062c-2.974 0-5.675 1.028-8.107 3.08-3.01 2.556-4.516 5.363-4.516 8.422 0 2.053.666 3.68 1.998 4.88 1.332 1.2 3.156 1.8 5.472 1.8 2.972 0 5.886-1.103 8.743-3.31 3.01-2.324 4.515-4.938 4.515-7.843zM95.666 103.946c0 1.074-1.39 2.534-4.168 4.376-4.285 2.84-7.334 4.26-9.148 4.26-1.97 0-3.3-1.23-3.996-3.694-.578-2.117-.867-6.005-.867-11.665v-5.89l-1.523.116h-.34c-1.653 0-2.48-.696-2.48-2.086 0-1.428.887-2.238 2.663-2.432l1.97-.23c.115-4.247.326-6.987.637-8.224.424-1.736 1.293-2.605 2.605-2.605 1.696 0 2.546.922 2.546 2.765 0 .038-.076.787-.23 2.245-.154 1.728-.29 3.513-.406 5.355l9.148-.695c1.584 0 2.375.715 2.375 2.143 0 1.43-.947 2.22-2.838 2.374l-8.916.81c-.118 2.664-.175 5.27-.175 7.817 0 6.022.5 9.033 1.506 9.033.58 0 2.433-1.042 5.56-3.127.77-.54 1.543-1.07 2.314-1.592.773-.52 1.428-.78 1.97-.78 1.194 0 1.792.575 1.792 1.726zM124.676 101.234c0 3.205-1.545 5.906-4.633 8.106-3.204 2.278-7.2 3.416-11.985 3.416-2.78 0-5.058-.502-6.832-1.505-1.622-.926-2.433-2.045-2.433-3.357 0-1.428.695-2.143 2.085-2.143.5 0 .926.136 1.273.405 1.66 1.544 3.61 2.316 5.85 2.316 3.28 0 6.04-.713 8.28-2.142 2.16-1.312 3.242-2.837 3.242-4.574 0-2.316-1.352-3.475-4.054-3.475-1.158 0-2.953.25-5.385.752s-4.266.753-5.5.753c-4.208 0-6.312-1.737-6.312-5.21 0-2.472 1.352-4.556 4.054-6.255 2.856-1.775 6.543-2.663 11.06-2.663 2.045 0 3.667.318 4.863.955s1.795 1.438 1.795 2.403c0 1.312-.694 1.97-2.084 1.97-.193 0-.85-.175-1.97-.522-1.12-.348-2.22-.52-3.3-.52-2.586 0-4.825.482-6.717 1.447-1.697.888-2.546 1.833-2.546 2.837 0 .85.54 1.273 1.62 1.273.618 0 2.172-.27 4.662-.81 2.49-.54 4.66-.812 6.514-.812 2.664 0 4.738.657 6.225 1.97 1.487 1.314 2.23 3.11 2.23 5.386z"/></g><defs><path id="c" d="M0 2h138.255v138.26H0z"/></defs><clipPath id="d"><use xlink:href="#c" overflow="visible"/></clipPath><path clip-path="url(#d)" fill="#ED7623" stroke="#fff" d="M118.88 55.54c4.54 0 6.64.94 6.64 3.59 0 3.335-2.69 4.02-8.824 4.02l-3.253-.284v2.394c0 7.61.34 9.24.34 10.523 0 2.905-1.432 4.445-4.035 4.445-3.782 0-4.286-3.847-4.286-12.398 0-2.137.085-1.716.085-4.45C87.05 64.66 77.217 66.8 75.79 66.8c-2.774 0-3.618-2.374-3.618-4.853 0-2.138 1.158-2.657 3.197-5.12 10.39-12.543 21.6-22.77 30.68-33.543 1.176-1.625 2.52-2.48 4.2-2.48 2.608 0 4.034 1.54 4.034 4.36 0 1.368-.757 13.247-.842 30.177 1.935-.084 5.1.2 5.438.2m-13.334.008v-6.355c0-6.328.165-11.8.503-16.245-6.726 7.438-14.204 17.47-22.527 25.335 6.388-1.112 13.783-2.053 22.023-2.735"/></svg>