<svg xmlns="http://www.w3.org/2000/svg" width="120.5" height="108.5" viewBox="0 0 120.5 108.5"><style type="text/css"><![CDATA[
	.st0{fill:#FFFFFF;}
	.st1{fill:#ED7623;stroke:#FFFFFF;}
]]></style><path class="st0" d="M33.2 9.193c0 1.54-1.71 2.518-5.128 2.93-5.412.303-10.823.603-16.234.903.225 2.556.356 4.472.395 5.75 4.133-.19 8.135-.47 12.006-.847l5.07-.51c1.58 0 2.37.68 2.37 2.03 0 1.39-1.55 2.33-4.65 2.82-1.54.264-6.37.66-14.52 1.187v5.647c0 5.912-.23 10.017-.68 12.313-.527 2.6-1.503 3.9-2.93 3.9-1.466 0-2.198-.81-2.198-2.427 0-.263.112-1.93.338-4.995.228-3.067.34-6.013.34-8.835 0-4.515-.17-8.76-.506-12.73-.34-3.97-.508-5.69-.508-5.164 0-1.618.92-2.597 2.76-2.936.3-.073 1.166-.13 2.594-.17 4.735-.186 9.207-.45 13.416-.79 3.682-.3 5.448-.45 5.298-.45 1.84 0 2.76.79 2.76 2.37zm7.667 29.03c0 2.556-.112 4.21-.334 4.96-.335 1.053-1.097 1.578-2.286 1.578-1.598 0-2.396-1.18-2.396-3.55V38c0-3.72-.1-7.3-.31-10.738-.2-3.44-.31-5.008-.31-4.708 0-.75.24-1.37.71-1.86.47-.487 1.06-.732 1.78-.732 1.466 0 2.31.865 2.537 2.593.413 3.42.62 8.643.62 15.67zm25.928-1.307c0 1.047-1.353 2.467-4.06 4.26-4.17 2.767-7.14 4.15-8.905 4.15-1.917 0-3.213-1.2-3.89-3.6-.563-2.06-.845-5.845-.845-11.355v-5.73l-1.482.12h-.33c-1.61 0-2.416-.676-2.416-2.03 0-1.39.864-2.18 2.593-2.37l1.917-.224c.113-4.132.32-6.8.62-8.003.413-1.69 1.258-2.535 2.537-2.535 1.653 0 2.48.898 2.48 2.69 0 .04-.076.768-.226 2.187-.15 1.684-.282 3.42-.395 5.215L63.3 19c1.54 0 2.31.697 2.31 2.087 0 1.39-.922 2.16-2.762 2.31l-8.68.79c-.112 2.593-.168 5.13-.168 7.61 0 5.862.488 8.793 1.466 8.793.563 0 2.367-1.015 5.41-3.044.752-.525 1.503-1.043 2.256-1.55.75-.508 1.39-.76 1.917-.76 1.16 0 1.74.56 1.74 1.68zM37.36 64.463c0 1.583-1.023 2.45-3.07 2.605l-10.48.753.406 30.87c.038 2.008-.907 3.01-2.837 3.01-1.78 0-2.69-.983-2.73-2.952l-.4-30.516c-3.86.193-6.37.29-7.528.29-3.242 0-4.864-.85-4.864-2.55 0-1.542 1.293-2.314 3.88-2.314 3.51 0 7.796-.174 12.853-.52l12.103-.812c1.776 0 2.664.715 2.664 2.143zm25.594 21.944c0 4.054-2.162 7.837-6.485 11.35-3.63 2.934-7.76 4.4-12.4 4.4-3.784 0-6.833-1.023-9.148-3.07-2.317-2.044-3.475-4.688-3.475-7.932 0-4.36 2.084-8.28 6.253-11.754 3.358-2.81 7.314-4.22 11.87-4.22 3.898 0 7.1 1.08 9.61 3.24s3.765 4.83 3.765 7.99zm-5.327.197c0-1.936-.782-3.59-2.345-4.966s-3.484-2.062-5.76-2.062c-2.974 0-5.675 1.027-8.107 3.08-3.01 2.555-4.516 5.362-4.516 8.42 0 2.054.66 3.68 1.99 4.88 1.33 1.2 3.155 1.802 5.47 1.802 2.97 0 5.886-1.104 8.743-3.312 3.01-2.324 4.514-4.938 4.514-7.842zm29.586 6.626c0 1.074-1.39 2.534-4.168 4.376-4.285 2.84-7.334 4.26-9.148 4.26-1.97 0-3.3-1.23-3.996-3.694-.57-2.117-.86-6.005-.86-11.665v-5.89l-1.52.116h-.338c-1.654 0-2.48-.695-2.48-2.085 0-1.428.887-2.238 2.66-2.432l1.97-.23c.115-4.247.326-6.987.637-8.224.424-1.736 1.293-2.605 2.605-2.605 1.698 0 2.548.922 2.548 2.765 0 .038-.075.787-.23 2.245-.153 1.728-.29 3.513-.405 5.355l9.15-.695c1.583 0 2.374.715 2.374 2.143 0 1.43-.948 2.22-2.84 2.374l-8.915.81c-.12 2.664-.176 5.27-.176 7.817 0 6.03.5 9.04 1.506 9.04.58 0 2.433-1.04 5.56-3.125.77-.54 1.543-1.07 2.314-1.592.773-.52 1.43-.78 1.97-.78 1.194 0 1.792.575 1.792 1.726zm29.01-2.71c0 3.204-1.545 5.905-4.633 8.105-3.203 2.278-7.2 3.416-11.984 3.416-2.78 0-5.06-.5-6.832-1.5-1.623-.923-2.434-2.042-2.434-3.36 0-1.43.695-2.14 2.086-2.14.5 0 .926.138 1.273.407 1.65 1.546 3.6 2.318 5.84 2.318 3.28 0 6.04-.713 8.28-2.142 2.16-1.31 3.242-2.836 3.242-4.573 0-2.317-1.353-3.476-4.056-3.476-1.158 0-2.953.25-5.385.753s-4.266.754-5.5.754c-4.207 0-6.31-1.735-6.31-5.21 0-2.47 1.35-4.554 4.05-6.253 2.857-1.775 6.545-2.663 11.06-2.663 2.046 0 3.67.317 4.864.954 1.195.637 1.793 1.438 1.793 2.403 0 1.313-.694 1.97-2.085 1.97-.194 0-.85-.174-1.97-.52s-2.22-.52-3.3-.52c-2.587 0-4.825.48-6.718 1.446-1.697.89-2.547 1.834-2.547 2.838 0 .85.54 1.275 1.62 1.275.62 0 2.174-.27 4.664-.81 2.488-.54 4.66-.81 6.514-.81 2.664 0 4.74.655 6.225 1.97 1.485 1.31 2.23 3.106 2.23 5.384z"/><path class="st1" d="M110.428 44.823c4.54 0 6.64.94 6.64 3.59 0 3.336-2.692 4.02-8.825 4.02l-3.252-.283v2.394c0 7.61.34 9.24.34 10.523 0 2.905-1.43 4.445-4.03 4.445-3.78 0-4.283-3.847-4.283-12.398 0-2.137.086-1.716.086-4.45-18.496 1.282-28.33 3.42-29.756 3.42-2.777 0-3.62-2.374-3.62-4.853 0-2.13 1.157-2.65 3.196-5.12 10.39-12.54 21.6-22.77 30.68-33.54 1.176-1.62 2.52-2.48 4.2-2.48 2.607 0 4.03 1.54 4.03 4.36 0 1.37-.755 13.25-.84 30.18 1.935-.08 5.1.2 5.44.2m-13.335.01v-6.36c0-6.33.164-11.8.502-16.244-6.726 7.438-14.204 17.47-22.526 25.335 6.39-1.116 13.786-2.057 22.026-2.74"/></svg>