<svg xmlns="http://www.w3.org/2000/svg" xmlns:xlink="http://www.w3.org/1999/xlink" width="244.5" height="223.5" viewBox="0 0 244.5 223.5"><g enable-background="new"><g enable-background="new"><defs><path id="a" d="M212.543 12.19l.264 6.936c.005.146-.002.272-.02.374l-.265-6.936c.02-.102.026-.228.02-.374z"/></defs><clipPath id="b"><use xlink:href="#a" overflow="visible"/></clipPath><g clip-path="url(#b)" enable-background="new"><path fill="#004770" d="M212.543 12.19l.264 6.936c.004.113 0 .214-.01.302l-.264-6.937c.01-.085.014-.186.01-.3"/><path fill="#004974" d="M212.533 12.49l.265 6.938-.013.072-.264-6.936c.008-.022.01-.046.014-.073"/></g></g><g enable-background="new"><defs><path id="c" d="M198.883 18.83l-.264-6.936c.024.695.69 1.746 2.492 3.312l.264 6.937c-1.803-1.567-2.467-2.618-2.494-3.313z"/></defs><clipPath id="d"><use xlink:href="#c" overflow="visible"/></clipPath><path fill="#003D61" d="M201.113 15.206l.265 6.937c-1.804-1.566-2.468-2.617-2.494-3.312l-.263-6.934c.027.694.69 1.745 2.494 3.31" clip-path="url(#d)" enable-background="new"/></g><g enable-background="new"><defs><path id="e" d="M188.353 22.444l-.264-6.936c.01.312.114.666.352 1.066l.264 6.937c-.237-.4-.342-.753-.354-1.065z"/></defs><clipPath id="f"><use xlink:href="#e" overflow="visible"/></clipPath><path fill="#003D61" d="M188.443 16.573l.264 6.937c-.236-.4-.342-.754-.354-1.066l-.264-6.936c.01.312.116.665.352 1.065" clip-path="url(#f)" enable-background="new"/></g><g enable-background="new"><defs><path id="g" d="M212.52 12.564l.265 6.936c-.27 1.398-1.25 3.23-1.303 3.327l-.264-6.936c.053-.095 1.032-1.927 1.303-3.325z"/></defs><clipPath id="h"><use xlink:href="#g" overflow="visible"/></clipPath><g clip-path="url(#h)" enable-background="new"><path fill="#004974" d="M212.52 12.564l.265 6.936c-.064.336-.172.697-.295 1.053l-.265-6.936c.125-.356.232-.717.296-1.053"/><path fill="#004C78" d="M212.226 13.617l.265 6.936c-.393 1.125-.967 2.2-1.006 2.273l-.264-6.936c.038-.072.612-1.148 1.006-2.273"/></g></g><g enable-background="new"><defs><path id="i" d="M189.197 18.13l.265 6.937c-.025-.663-.7-1.49-.755-1.557l-.264-6.937c.055.068.73.895.754 1.558z"/></defs><clipPath id="j"><use xlink:href="#i" overflow="visible"/></clipPath><path fill="#003D61" d="M189.197 18.13l.265 6.937c-.025-.663-.7-1.49-.755-1.557l-.264-6.937c.055.068.73.895.754 1.558" clip-path="url(#j)" enable-background="new"/></g><g enable-background="new"><defs><path id="k" d="M176.426 23.732l.264 6.937c-.005-.123-.02-.24-.05-.35-.097-.36-.15-.79-.17-1.254l-.265-6.937c.02.466.074.894.17 1.255.03.11.046.225.05.346z"/></defs><clipPath id="l"><use xlink:href="#k" overflow="visible"/></clipPath><path fill="#003D61" d="M176.426 23.732l.264 6.937c-.005-.123-.02-.24-.05-.35-.097-.36-.15-.79-.17-1.254l-.265-6.937c.02.466.074.894.17 1.255.03.11.046.225.05.346" clip-path="url(#l)" enable-background="new"/></g><g enable-background="new"><defs><path id="m" d="M235.158 23.32l.264 6.936c.003.066-.018.125-.06.176-1.316 1.56-6.066 3.23-6.903 3.606-.828.375-23.618 2.542-24.3 2.705-.313.075-.5.256-.49.47-.09-2.31-.177-4.623-.265-6.936-.01-.215.18-.396.492-.47.68-.164 23.47-2.33 24.297-2.706.836-.375 5.586-2.043 6.9-3.604.046-.05.065-.11.063-.175z"/></defs><clipPath id="n"><use xlink:href="#m" overflow="visible"/></clipPath><g clip-path="url(#n)" enable-background="new"><path fill="#004770" d="M235.158 23.32l.264 6.936c0 .02 0 .037-.003.054l-.267-6.938c.004-.015.004-.033.004-.052"/><path fill="#004974" d="M235.154 23.375l.265 6.937c-.005.02-.01.038-.02.056l-.264-6.937c.01-.017.015-.035.017-.054"/><path fill="#004C78" d="M235.138 23.43l.265 6.936-.03.05-.263-6.935c.01-.014.02-.032.028-.05"/><path fill="#004E7B" d="M235.11 23.48l.263 6.937-.012.015c-.453.54-1.316 1.09-2.287 1.598l-.264-6.937c.97-.507 1.833-1.06 2.287-1.598l.013-.014"/><path fill="#004C78" d="M232.81 25.093l.263 6.937c-1.84.96-4.065 1.762-4.613 2.01-.018.006-.04.014-.072.022l-.264-6.936c.03-.01.056-.017.072-.024.546-.247 2.772-1.048 4.613-2.01"/><path fill="#004974" d="M228.123 27.126l.264 6.936c-.044.012-.104.025-.177.04l-.265-6.938c.074-.013.133-.027.178-.038"/><path fill="#004770" d="M227.945 27.165l.265 6.938c-2.585.5-22.74 2.424-24.002 2.633l-.265-6.937c1.264-.21 21.418-2.137 24.002-2.636"/><path fill="#004974" d="M203.943 29.798l.265 6.937c-.02.003-.036.006-.048.01-.028.006-.058.014-.084.023l-.265-6.936c.03-.01.058-.017.09-.024.01-.004.024-.007.044-.01"/><path fill="#004C78" d="M203.812 29.83l.265 6.937c-.05.017-.1.037-.14.06l-.265-6.938c.042-.024.09-.043.14-.06"/><path fill="#004E7B" d="M203.672 29.89l.264 6.937c-.09.047-.158.107-.205.175l-.262-6.936c.046-.07.115-.128.205-.176"/><path fill="#004C78" d="M203.467 30.065L203.73 37c-.017.028-.03.056-.042.085l-.263-6.936c.01-.03.024-.06.042-.086"/><path fill="#004974" d="M203.425 30.15l.263 6.935c-.008.022-.013.046-.017.07l-.263-6.937c.006-.023.01-.046.02-.07"/><path fill="#004770" d="M203.408 30.218l.264 6.937-.003.06-.265-6.938c-.002-.02 0-.04.002-.06"/></g></g><g enable-background="new"><defs><path id="o" d="M168.92 33.504l.262 6.937c-.037-.98-2.445-2.76-2.49-3.93l-.265-6.936c.045 1.17 2.454 2.95 2.492 3.93z"/></defs><clipPath id="p"><use xlink:href="#o" overflow="visible"/></clipPath><path fill="#003D61" d="M168.92 33.504l.262 6.937c-.037-.98-2.445-2.76-2.49-3.93l-.265-6.936c.045 1.17 2.454 2.95 2.492 3.93" clip-path="url(#p)" enable-background="new"/></g><g enable-background="new"><defs><path id="q" d="M207.2 32.668l.263 6.936c.003.073-.036.138-.126.195l-.265-6.94c.09-.055.13-.12.127-.193z"/></defs><clipPath id="r"><use xlink:href="#q" overflow="visible"/></clipPath><g clip-path="url(#r)" enable-background="new"><path fill="#004770" d="M207.2 32.668l.263 6.936v.03l-.266-6.937c.002-.01.002-.02.002-.03"/><path fill="#004974" d="M207.197 32.698l.265 6.937c-.002.013-.005.026-.01.04l-.265-6.937c.006-.013.008-.026.01-.04"/><path fill="#004C78" d="M207.188 32.737l.264 6.937c-.006.015-.015.03-.023.045l-.266-6.94c.01-.012.017-.03.023-.044"/><path fill="#004E7B" d="M207.164 32.782l.264 6.937c-.02.026-.05.053-.09.08l-.266-6.938c.04-.025.07-.05.092-.08"/></g></g><g enable-background="new"><defs><path id="s" d="M156.822 35.695l.265 6.937c-.015-.373-.11-.866-.313-1.5-.072-.23-.11-.446-.117-.65l-.265-6.936c.01.204.046.42.118.65.2.633.3 1.127.312 1.5z"/></defs><clipPath id="t"><use xlink:href="#s" overflow="visible"/></clipPath><path fill="#003D61" d="M156.822 35.695l.265 6.937c-.015-.373-.11-.866-.313-1.5-.072-.23-.11-.446-.117-.65l-.265-6.936c.01.204.046.42.118.65.2.633.3 1.127.312 1.5" clip-path="url(#t)" enable-background="new"/></g><g enable-background="new"><defs><path id="u" d="M193.986 40.91l-.264-6.937c-.004-.112.04-.23.145-.35 1.02-1.19 3.988-1.95 5.4-1.436.307.11.538.28.662.52.31.597.853.93 1.36 1.113.63.23 1.17.23 1.198.23l.264 6.936c-.028 0-.57 0-1.2-.23-.505-.184-1.048-.515-1.36-1.113-.124-.238-.356-.408-.66-.52-1.415-.513-4.382.248-5.403 1.44-.104.118-.15.235-.145.347z"/></defs><clipPath id="v"><use xlink:href="#u" overflow="visible"/></clipPath><g clip-path="url(#v)" enable-background="new"><path fill="#004269" d="M202.492 34.05l.264 6.936c-.012 0-.105 0-.258-.015l-.264-6.935c.15.015.246.015.258.015"/><path fill="#004065" d="M202.234 34.034l.264 6.937c-.13-.01-.3-.035-.49-.08l-.266-6.936c.193.044.363.07.492.08"/><path fill="#003D61" d="M201.742 33.953l.265 6.936c-.142-.034-.292-.077-.45-.134-.506-.185-1.05-.516-1.36-1.114-.126-.238-.357-.408-.663-.52-.084-.03-.172-.055-.267-.077l-.264-6.936c.094.02.183.046.267.077.305.11.537.28.66.52.314.597.857.93 1.364 1.113.157.058.308.1.448.133"/><path fill="#004065" d="M199.002 32.11l.264 6.936c-.125-.03-.26-.05-.398-.064l-.265-6.937c.14.015.274.035.4.065"/><path fill="#004269" d="M198.603 32.045l.265 6.937c-.146-.015-.3-.02-.46-.02l-.264-6.938c.16 0 .313.006.46.02"/><path fill="#00446C" d="M198.144 32.024l.263 6.937c-.183 0-.373.013-.566.033l-.262-6.936c.193-.02.383-.03.567-.032"/><path fill="#004770" d="M197.576 32.055l.264 6.936c-.234.026-.48.063-.72.11l-.265-6.934c.243-.05.485-.086.72-.11"/><path fill="#004974" d="M196.855 32.167l.264 6.936c-.3.06-.598.14-.887.234l-.264-6.936c.29-.094.59-.172.884-.232"/><path fill="#004C78" d="M195.97 32.4l.265 6.936c-.367.12-.722.266-1.04.433l-.264-6.94c.32-.165.674-.31 1.04-.43"/><path fill="#004E7B" d="M194.93 32.833l.266 6.937c-.438.23-.812.498-1.064.793-.02.023-.038.047-.055.07l-.265-6.936c.017-.023.034-.047.056-.07.25-.297.624-.565 1.063-.794"/><path fill="#004C78" d="M193.812 33.695l.265 6.937c-.028.042-.05.084-.064.125l-.264-6.936c.01-.04.032-.08.06-.124"/><path fill="#004974" d="M193.748 33.82l.264 6.937c-.01.03-.018.058-.02.086l-.265-6.936c.003-.028.01-.057.02-.086"/><path fill="#004770" d="M193.726 33.907l.265 6.936c-.002.022-.002.044-.002.067l-.264-6.937c0-.02 0-.044.003-.066"/></g></g><g enable-background="new"><defs><path id="w" d="M207.072 32.863l.265 6.937c-.687.432-4.388 1.15-4.58 1.187l-.265-6.937c.194-.038 3.895-.755 4.58-1.187z"/></defs><clipPath id="x"><use xlink:href="#w" overflow="visible"/></clipPath><g clip-path="url(#x)" enable-background="new"><path fill="#004E7B" d="M207.072 32.863l.265 6.937c-.02.013-.043.026-.07.04l-.263-6.937c.025-.014.048-.027.068-.04"/><path fill="#004C78" d="M207.003 32.903l.264 6.936c-.125.063-.312.135-.536.21l-.262-6.94c.226-.072.41-.143.536-.21"/><path fill="#004974" d="M206.467 33.112l.264 6.937c-.95.31-2.61.66-3.453.832l-.265-6.937c.845-.17 2.506-.524 3.457-.834"/><path fill="#004770" d="M203.01 33.946l.266 6.937c-.287.058-.48.095-.52.103l-.266-6.937c.043-.01.235-.046.52-.105"/></g></g><g enable-background="new"><defs><path id="y" d="M147.59 38.723c.09 2.312.177 4.624.265 6.936-.045-1.197-3.48-1.59-3.534-3.02l-.262-6.937c.054 1.43 3.49 1.824 3.534 3.02z"/></defs><clipPath id="z"><use xlink:href="#y" overflow="visible"/></clipPath><path fill="#003D61" d="M147.59 38.723l.265 6.936c-.045-1.197-3.48-1.59-3.534-3.02l-.262-6.937c.054 1.43 3.49 1.824 3.534 3.02" clip-path="url(#z)" enable-background="new"/></g><path fill="#004B77" d="M163.535 41.44l.264 6.938-4.31.163-.266-6.934z"/><g enable-background="new"><defs><path id="A" d="M137.342 47.18l-.265-6.937c.008.186.06.415.158.694.344.956 1.644 1.785 3.324 2.397 3.053 1.112 7.374 1.508 9.535.648 3.34-1.33 4.467-1.734 5.247-1.854.793-.122 3.725-.504 3.88-.524l.263 6.936c-.154.02-3.086.403-3.88.525-.778.12-1.907.524-5.246 1.854-2.16.86-6.48.462-9.538-.65-1.682-.61-2.98-1.44-3.323-2.397-.1-.28-.15-.51-.16-.694z"/></defs><clipPath id="B"><use xlink:href="#A" overflow="visible"/></clipPath><g clip-path="url(#B)" enable-background="new"><path fill="#004770" d="M159.224 41.604l.265 6.936c-.156.02-3.088.403-3.88.525-.068.01-.14.023-.21.038l-.267-6.937c.073-.015.144-.027.21-.038.794-.122 3.726-.503 3.88-.524"/><path fill="#004974" d="M155.134 42.167l.265 6.937c-.256.05-.553.132-.94.26l-.265-6.938c.39-.127.685-.21.938-.26"/><path fill="#004C78" d="M154.195 42.425l.265 6.937c-.814.266-2.033.734-4.1 1.557-.085.032-.175.064-.27.095l-.264-6.937c.095-.03.185-.064.27-.098 2.066-.822 3.285-1.29 4.1-1.557"/><path fill="#004974" d="M149.828 44.08l.265 6.937c-.212.07-.44.128-.684.177l-.266-6.937c.244-.05.472-.108.683-.177"/><path fill="#004770" d="M149.146 44.257l.264 6.937c-.276.056-.573.1-.886.13l-.264-6.936c.31-.03.608-.075.886-.13"/><path fill="#00446C" d="M148.26 44.388l.264 6.937c-.396.04-.814.06-1.25.06l-.264-6.936c.435-.004.854-.024 1.25-.063"/><path fill="#004269" d="M147.01 44.448l.264 6.937c-.588.002-1.205-.03-1.83-.093l-.265-6.936c.624.062 1.24.094 1.83.092"/><path fill="#004065" d="M145.18 44.356l.263 6.936c-.86-.086-1.74-.23-2.585-.426l-.264-6.937c.845.194 1.723.34 2.585.425"/><path fill="#003D61" d="M142.594 43.93l.264 6.936c-.712-.165-1.4-.364-2.033-.595-1.682-.61-2.98-1.44-3.323-2.395-.102-.28-.15-.51-.158-.694l-.265-6.936c.006.186.057.415.156.694.344.956 1.644 1.785 3.324 2.397.634.23 1.322.43 2.034.595"/></g></g><g enable-background="new"><defs><path id="C" d="M139.39 52.495l.263 6.937c-.87-.316-1.534-.632-1.568-.648l-.265-6.937c.034.016.7.332 1.57.648z"/></defs><clipPath id="D"><use xlink:href="#C" overflow="visible"/></clipPath><path fill="#003D61" d="M139.39 52.495l.263 6.937c-.87-.316-1.534-.632-1.568-.648l-.265-6.937c.034.016.7.332 1.57.648" clip-path="url(#D)" enable-background="new"/></g><g enable-background="new"><defs><path id="E" d="M142.155 53.057l.265 6.937c0-.004-.005-.007-.01-.01l-.265-6.936c.006.002.01.006.01.01z"/></defs><clipPath id="F"><use xlink:href="#E" overflow="visible"/></clipPath><path fill="#003D61" d="M142.155 53.057l.265 6.937c0-.004-.005-.007-.01-.01l-.265-6.936c.006.002.01.006.01.01" clip-path="url(#F)" enable-background="new"/></g><g enable-background="new"><defs><path id="G" d="M142.146 53.048l.264 6.937c-.85.064-1.888-.236-2.757-.553l-.264-6.937c.87.317 1.905.617 2.755.553z"/></defs><clipPath id="H"><use xlink:href="#G" overflow="visible"/></clipPath><g clip-path="url(#H)" enable-background="new"><path fill="#00446C" d="M142.146 53.048l.264 6.937c-.074.006-.15.008-.23.01l-.263-6.938c.077 0 .153-.003.23-.01"/><path fill="#004269" d="M141.917 53.057l.264 6.937c-.134 0-.274-.007-.417-.02l-.265-6.938c.144.014.284.02.42.02"/><path fill="#004065" d="M141.498 53.035l.265 6.937c-.25-.025-.51-.07-.768-.13l-.264-6.938c.26.06.518.106.77.13"/><path fill="#003D61" d="M140.73 52.904l.265 6.937c-.46-.104-.92-.254-1.343-.407l-.264-6.937c.423.154.883.304 1.343.41"/></g></g><path fill="#004B77" d="M155.98 53.563l.262 6.937-12.658.696-.263-6.936z"/><path fill="#003B5E" d="M137.823 56.64l.264 6.935-.933-2.173-.263-6.936z"/><path fill="#004C78" d="M143.32 54.26l.264 6.936-.64 2.416-.263-6.937z"/><path fill="#005485" d="M142.68 56.675l.264 6.937-2.198 2.458-.264-6.937z"/><path fill="#004C79" d="M140.482 59.133l.264 6.937-3.864.326-.264-6.938z"/><g enable-background="new"><defs><path id="I" d="M231.053 52.907l.25 6.59.014.347c.012.3-.065.576-.246.824-2.34 3.22-5.94-.534-9.44 4.032l-.265-6.936c3.5-4.566 7.103-.812 9.442-4.032.18-.248.258-.524.247-.825z"/></defs><clipPath id="J"><use xlink:href="#I" overflow="visible"/></clipPath><g clip-path="url(#J)" enable-background="new"><path fill="#004770" d="M231.053 52.907l.264 6.937c.004.08 0 .156-.01.23l-.264-6.935c.01-.077.013-.154.01-.234"/><path fill="#004974" d="M231.043 53.14l.263 6.935c-.012.097-.035.19-.07.283l-.263-6.937c.034-.09.058-.182.07-.28"/><path fill="#004C78" d="M230.973 53.422l.264 6.937c-.035.094-.084.187-.146.277l-.263-6.936c.063-.09.112-.18.147-.28"/><path fill="#004E7B" d="M230.828 53.7l.264 6.937c-.007.01-.016.02-.02.03-.363.5-.757.832-1.177 1.053l-.264-6.937c.42-.22.814-.553 1.178-1.052l.02-.03"/><path fill="#004C78" d="M229.63 54.784l.264 6.937c-.16.087-.33.157-.5.21l-.263-6.934c.17-.056.34-.125.5-.21"/><path fill="#004974" d="M229.13 54.995l.265 6.936c-.146.05-.293.087-.443.118l-.264-6.936c.15-.03.298-.068.443-.115"/><path fill="#004770" d="M228.688 55.11l.264 6.937c-.176.035-.354.06-.535.078l-.264-6.936c.18-.02.36-.045.535-.08"/><path fill="#00446C" d="M228.152 55.188l.264 6.936c-.81.08-1.676.016-2.575.106l-.263-6.936c.9-.09 1.767-.027 2.576-.106"/><path fill="#004770" d="M225.576 55.294l.265 6.936c-.226.023-.454.055-.685.102l-.265-6.936c.23-.047.46-.08.686-.102"/><path fill="#004974" d="M224.89 55.396l.265 6.936c-.21.042-.42.096-.63.166l-.264-6.936c.21-.07.42-.124.63-.166"/><path fill="#004C78" d="M224.26 55.562l.264 6.936c-.256.084-.514.19-.77.327l-.265-6.936c.255-.14.513-.245.77-.33"/><path fill="#004E7B" d="M223.488 55.888l.264 6.936c-.705.37-1.417.953-2.125 1.876l-.264-6.936c.707-.924 1.42-1.507 2.125-1.876"/></g></g><path fill="#005586" d="M136.618 59.458l.264 6.938-3.384 2.54-.264-6.937zM133.234 62l.264 6.935-2.003 1.413-.264-6.937z"/><g enable-background="new"><defs><path id="K" d="M152.965 66.423l-.265-6.937c.073 1.935 3.118 3.57 3.286 3.66l.262 6.938c-.166-.09-3.21-1.726-3.283-3.66z"/></defs><clipPath id="L"><use xlink:href="#K" overflow="visible"/></clipPath><path fill="#003D61" d="M155.986 63.147l.264 6.937c-.168-.09-3.212-1.726-3.284-3.66l-.265-6.938c.075 1.936 3.12 3.57 3.287 3.66" clip-path="url(#L)" enable-background="new"/></g><g enable-background="new"><defs><path id="M" d="M122.15 71.057l-.263-6.937c.014.372.302.758 1.065 1.074l.264 6.937c-.763-.314-1.05-.7-1.065-1.072z"/></defs><clipPath id="N"><use xlink:href="#M" overflow="visible"/></clipPath><path fill="#003D61" d="M122.952 65.195l.264 6.938c-.763-.316-1.05-.703-1.064-1.074l-.264-6.94c.013.37.3.76 1.064 1.074" clip-path="url(#N)" enable-background="new"/></g><path fill="#005586" d="M131.23 63.41l.265 6.938-3.376 2.337-.266-6.936z"/><g enable-background="new"><defs><path id="O" d="M127.855 65.75l.264 6.935c-.15.008-2.964.153-4.904-.554l-.264-6.935c1.94.707 4.754.562 4.902.555z"/></defs><clipPath id="P"><use xlink:href="#O" overflow="visible"/></clipPath><g clip-path="url(#P)" enable-background="new"><path fill="#00446C" d="M127.855 65.75l.264 6.935c-.045.002-.31.016-.71.018l-.265-6.937c.402-.002.666-.016.71-.017"/><path fill="#004269" d="M127.146 65.765l.264 6.937c-.474 0-1.14-.014-1.854-.086l-.264-6.936c.717.07 1.38.087 1.854.085"/><path fill="#004065" d="M125.293 65.68l.264 6.936c-.486-.048-.996-.123-1.485-.235l-.264-6.936c.49.113 1 .188 1.485.237"/><path fill="#003D61" d="M123.808 65.444l.264 6.937c-.296-.065-.584-.147-.854-.246l-.264-6.938c.27.098.56.18.854.25"/></g></g><g enable-background="new"><defs><path id="Q" d="M221.363 57.764l.264 6.936c-3.512 4.57-26.87 9.228-28.1 9.472l-.265-6.937c1.23-.245 24.59-4.902 28.1-9.47z"/></defs><clipPath id="R"><use xlink:href="#Q" overflow="visible"/></clipPath><g clip-path="url(#R)" enable-background="new"><path fill="#004E7B" d="M221.363 57.764l.264 6.936c-.537.7-1.538 1.4-2.854 2.086l-.264-6.937c1.313-.688 2.315-1.39 2.852-2.087"/><path fill="#004C78" d="M218.51 59.85l.264 6.937c-1.808.943-4.207 1.86-6.81 2.71l-.265-6.937c2.602-.85 5.002-1.766 6.81-2.71"/><path fill="#004974" d="M211.7 62.56l.264 6.937c-7.163 2.336-15.865 4.155-17.998 4.588l-.265-6.937c2.135-.434 10.838-2.252 18-4.587"/><path fill="#004770" d="M193.7 67.147l.266 6.937c-.218.045-.366.074-.438.088l-.264-6.937c.07-.014.22-.043.437-.088"/></g></g><path fill="#005181" d="M193.263 67.236l.264 6.936-2.638.808-.266-6.936z"/><g enable-background="new"><defs><path id="S" d="M173.27 78.152l-.262-6.938c-.003-.065 0-.134.012-.203.247-1.633 2.456-1.24 4.526-.486 1.195.436 2.344.99 3.574 1.58l.265 6.936c-1.23-.59-2.38-1.145-3.575-1.58-2.07-.754-4.28-1.146-4.525.488-.012.07-.015.138-.014.204z"/></defs><clipPath id="T"><use xlink:href="#S" overflow="visible"/></clipPath><g clip-path="url(#T)" enable-background="new"><path fill="#003D61" d="M181.123 72.104l.264 6.938c-1.23-.59-2.38-1.145-3.575-1.58-.526-.19-1.062-.36-1.57-.478l-.264-6.937c.51.12 1.044.287 1.57.478 1.194.434 2.343.99 3.575 1.58"/><path fill="#004065" d="M175.977 70.047l.264 6.937c-.304-.07-.6-.123-.88-.15l-.263-6.938c.28.028.575.082.88.15"/><path fill="#004269" d="M175.096 69.896l.264 6.938c-.156-.017-.31-.025-.453-.025l-.265-6.938c.145 0 .297.008.454.023"/><path fill="#00446C" d="M174.642 69.872l.265 6.937c-.106 0-.21.003-.31.013l-.263-6.937c.1-.01.203-.015.308-.015"/><path fill="#004770" d="M174.334 69.887l.264 6.938c-.083.008-.163.02-.238.036l-.265-6.935c.077-.017.156-.028.24-.037"/><path fill="#004974" d="M174.095 69.924l.265 6.936c-.076.016-.146.034-.216.057l-.263-6.937c.07-.023.14-.042.216-.056"/><path fill="#004C78" d="M173.88 69.98l.264 6.936c-.085.027-.165.062-.24.103l-.264-6.94c.075-.04.155-.073.24-.1"/><path fill="#004E7B" d="M173.64 70.08l.265 6.94c-.166.088-.305.207-.41.363l-.264-6.938c.107-.154.245-.275.41-.364"/><path fill="#004C78" d="M173.23 70.445l.264 6.938c-.057.082-.104.177-.14.28l-.265-6.936c.035-.104.083-.198.14-.282"/><path fill="#004974" d="M173.09 70.73l.264 6.937c-.03.086-.054.182-.068.284l-.004.023-.264-6.937c0-.007.002-.014.003-.02.018-.105.04-.2.07-.286"/><path fill="#004770" d="M173.018 71.033l.264 6.938c-.008.064-.012.125-.01.184l-.263-6.938c-.005-.06 0-.12.007-.182"/></g></g><g enable-background="new"><defs><path id="U" d="M184.912 70.9l.265 6.938c-2.338.72-2.422 1.7-3.79 1.203l-.264-6.936c1.367.5 1.45-.483 3.79-1.203z"/></defs><clipPath id="V"><use xlink:href="#U" overflow="visible"/></clipPath><g clip-path="url(#V)" enable-background="new"><path fill="#004974" d="M184.912 70.9l.265 6.938c-.054.016-.104.03-.153.05l-.265-6.94.15-.048"/><path fill="#004C78" d="M184.758 70.948l.264 6.937c-.523.172-.93.354-1.26.528l-.264-6.937c.332-.173.736-.356 1.26-.528"/><path fill="#004E7B" d="M183.498 71.477l.265 6.937c-.407.214-.703.41-.97.552l-.266-6.938c.27-.14.564-.34.97-.55"/><path fill="#004C78" d="M182.527 72.027l.265 6.938c-.112.06-.22.106-.327.143l-.264-6.938c.11-.035.218-.084.328-.143"/><path fill="#004974" d="M182.2 72.17l.265 6.938c-.053.018-.104.03-.157.042l-.263-6.937c.052-.012.103-.025.156-.043"/><path fill="#004770" d="M182.044 72.213l.263 6.937c-.042.01-.085.017-.128.02l-.267-6.937c.045-.004.087-.012.13-.02"/><path fill="#00446C" d="M181.916 72.232l.264 6.938c-.042.004-.084.006-.127.006l-.264-6.938c.04 0 .084 0 .125-.006"/><path fill="#004269" d="M181.79 72.238l.263 6.938c-.047 0-.096-.002-.146-.008l-.264-6.937c.05.008.1.01.146.01"/><path fill="#004065" d="M181.642 72.23l.265 6.938c-.07-.007-.146-.02-.227-.04l-.264-6.935c.08.018.154.032.226.038"/><path fill="#003D61" d="M181.417 72.193l.264 6.936c-.09-.023-.186-.053-.292-.09l-.264-6.938c.105.038.203.07.294.09"/></g></g><g enable-background="new"><defs><path id="W" d="M192.486 70.38l.265 6.936c.03.73-.226 1.672-.993 2.874-.803 1.252-1.602 1.474-2.377 1.19-.77-.278-1.517-1.055-2.224-1.815-.705-.76-1.373-1.508-1.98-1.73l-.264-6.936c.606.22 1.275.966 1.98 1.726.706.762 1.452 1.537 2.223 1.817.775.283 1.574.06 2.377-1.19.767-1.203 1.023-2.143.994-2.875z"/></defs><clipPath id="X"><use xlink:href="#W" overflow="visible"/></clipPath><g clip-path="url(#X)" enable-background="new"><path fill="#004770" d="M192.486 70.38l.265 6.936c.01.163 0 .335-.023.52l-.264-6.938c.024-.183.032-.357.024-.52"/><path fill="#004974" d="M192.46 70.897l.265 6.937c-.033.256-.1.534-.205.834l-.264-6.936c.105-.3.17-.58.205-.835"/><path fill="#004C78" d="M192.256 71.732l.264 6.936c-.158.454-.404.96-.765 1.52-.02.032-.04.065-.062.096l-.265-6.937.062-.096c.36-.56.608-1.063.766-1.517"/><path fill="#004E7B" d="M191.43 73.348l.264 6.938c-.348.52-.693.848-1.04 1.028l-.263-6.937c.347-.182.693-.51 1.04-1.03"/><path fill="#004C78" d="M190.39 74.377l.265 6.937c-.082.043-.164.077-.246.104l-.266-6.937c.082-.025.164-.06.246-.102"/><path fill="#004974" d="M190.145 74.48l.264 6.938c-.057.02-.11.032-.164.043l-.264-6.935c.052-.01.107-.024.162-.043"/><path fill="#004770" d="M189.982 74.525l.264 6.938c-.05.01-.096.017-.144.02l-.264-6.936c.05-.004.096-.013.144-.022"/><path fill="#00446C" d="M189.84 74.547l.263 6.937c-.047.005-.093.007-.14.007l-.264-6.934c.045-.002.092-.004.14-.008"/><path fill="#004269" d="M189.7 74.555l.264 6.936c-.052 0-.104 0-.156-.006l-.264-6.936c.05.004.104.008.157.008"/><path fill="#004065" d="M189.543 74.547l.264 6.936c-.068-.008-.137-.02-.204-.034l-.264-6.94c.065.017.134.028.202.036"/><path fill="#003D61" d="M189.34 74.512l.263 6.937c-.075-.02-.15-.04-.225-.07-.77-.28-1.517-1.055-2.224-1.815-.703-.76-1.373-1.508-1.98-1.73l-.263-6.936c.607.22 1.276.967 1.98 1.727.708.762 1.454 1.537 2.224 1.817.076.028.15.05.226.067"/></g></g><path fill="#005282" d="M128.227 81.37l.263 6.94-2.432.843-.264-6.936z"/><g enable-background="new"><defs><path id="Y" d="M123.226 84.215l-.263-6.937c.02.497 2.682 4.704 2.83 4.938l.265 6.938c-.15-.236-2.814-4.443-2.832-4.94z"/></defs><clipPath id="Z"><use xlink:href="#Y" overflow="visible"/></clipPath><path fill="#003D61" d="M125.794 82.217l.264 6.938c-.15-.236-2.812-4.443-2.832-4.94l-.263-6.936c.017.493 2.682 4.7 2.83 4.936" clip-path="url(#Z)" enable-background="new"/></g><g enable-background="new"><defs><path id="aa" d="M134.572 83.778l.265 6.937c-.125.166-2.145 3.494-2.25 3.67l-.265-6.938c.107-.174 2.125-3.503 2.25-3.67z"/></defs><clipPath id="ab"><use xlink:href="#aa" overflow="visible"/></clipPath><g clip-path="url(#ab)" enable-background="new"><path fill="#004E7B" d="M134.572 83.778l.265 6.937c-.006.008-.015.02-.026.04l-.262-6.94.025-.037"/><path fill="#004C78" d="M134.547 83.816l.264 6.938c-.266.404-2.12 3.463-2.223 3.63l-.265-6.937c.105-.167 1.96-3.226 2.227-3.63"/></g></g><path fill="#005282" d="M132.322 87.447l.264 6.938-2.995 1.052-.263-6.937z"/><path fill="#003B5E" d="M129.326 88.5l.265 6.937-1.1-7.128-.262-6.94z"/><g enable-background="new"><defs><path id="ac" d="M190.726 79.856c.09 2.312.177 4.624.265 6.937.04 1.006-.166 2.27-.703 3.866-.566 1.68-.754 3.007-.715 4.074l-.263-6.937c-.04-1.068.145-2.396.714-4.076.537-1.596.742-2.86.704-3.865z"/></defs><clipPath id="ad"><use xlink:href="#ac" overflow="visible"/></clipPath><g clip-path="url(#ad)" enable-background="new"><path fill="#004770" d="M190.726 79.856l.265 6.937c.017.383-.006.805-.065 1.27l-.265-6.938c.06-.464.08-.885.066-1.27"/><path fill="#004974" d="M190.658 81.125l.265 6.937c-.1.75-.306 1.61-.638 2.6-.334.988-.535 1.854-.64 2.62l-.262-6.938c.103-.764.304-1.63.638-2.62.335-.99.54-1.85.64-2.6"/><path fill="#004770" d="M189.384 86.344l.263 6.936c-.07.534-.093 1.018-.076 1.456l-.262-6.937c-.016-.44.005-.924.077-1.457"/></g></g><g enable-background="new"><defs><path id="ae" d="M136.2 89.98l.264 6.938c-.073-.308-1.464-6.144-1.626-6.203l-.265-6.937c.162.06 1.553 5.896 1.626 6.203z"/></defs><clipPath id="af"><use xlink:href="#ae" overflow="visible"/></clipPath><path fill="#003D61" d="M136.2 89.98l.264 6.938c-.073-.308-1.464-6.144-1.626-6.203l-.265-6.937c.162.06 1.553 5.896 1.626 6.203" clip-path="url(#af)" enable-background="new"/></g><path fill="#00446C" d="M139.867 90.7l.264 6.937-3.666-.72-.264-6.936z"/><g enable-background="new"><defs><path id="ag" d="M145.587 90.512l.263 6.938c-1.81-.658-5.523.146-5.72.188l-.264-6.937c.196-.04 3.91-.845 5.72-.187z"/></defs><clipPath id="ah"><use xlink:href="#ag" overflow="visible"/></clipPath><g clip-path="url(#ah)" enable-background="new"><path fill="#003D61" d="M145.587 90.512l.263 6.938c-.122-.044-.253-.083-.39-.113l-.266-6.937c.14.03.27.067.393.112"/><path fill="#004065" d="M145.195 90.398l.265 6.936c-.206-.047-.43-.082-.66-.104l-.264-6.938c.232.024.453.058.66.106"/><path fill="#004269" d="M144.536 90.293l.265 6.938c-.286-.027-.59-.04-.9-.04l-.262-6.935c.307 0 .61.01.9.04"/><path fill="#00446C" d="M143.636 90.254l.264 6.937c-.48.004-.97.036-1.433.083l-.264-6.938c.464-.046.954-.078 1.433-.08"/><path fill="#004770" d="M142.204 90.336l.264 6.937c-.963.097-1.805.256-2.16.33l-.265-6.94c.356-.07 1.197-.23 2.16-.327"/><path fill="#004974" d="M140.042 90.663l.264 6.937-.175.037-.263-6.937.176-.037"/></g></g><g enable-background="new"><defs><path id="ai" d="M150.857 91.135l.264 6.936c-.122.066-2.466 1.284-3.747.816-.312-.112-.552-.33-.672-.692-.113-.353-.424-.59-.85-.745l-.263-6.94c.425.157.733.395.85.747.12.362.36.578.672.69 1.282.47 3.624-.748 3.75-.81z"/></defs><clipPath id="aj"><use xlink:href="#ai" overflow="visible"/></clipPath><g clip-path="url(#aj)" enable-background="new"><path fill="#004C78" d="M150.857 91.135l.264 6.936c-.06.035-.704.37-1.487.625l-.265-6.936c.784-.257 1.427-.59 1.49-.624"/><path fill="#004974" d="M149.367 91.758l.265 6.937c-.248.082-.512.155-.773.208l-.266-6.938c.26-.053.524-.125.772-.207"/><path fill="#004770" d="M148.594 91.967l.264 6.937c-.154.032-.31.056-.46.07l-.265-6.936c.152-.016.306-.04.46-.07"/><path fill="#00446C" d="M148.133 92.037l.264 6.938c-.11.01-.22.018-.328.018l-.266-6.936c.107-.002.216-.008.328-.02"/><path fill="#004269" d="M147.805 92.057l.264 6.936c-.093 0-.18-.003-.268-.012l-.265-6.934c.088.008.177.012.267.012"/><path fill="#004065" d="M147.54 92.045l.264 6.936c-.085-.006-.168-.02-.248-.04l-.264-6.935c.08.018.162.03.247.04"/><path fill="#003D61" d="M147.292 92.004l.264 6.937c-.062-.013-.124-.03-.184-.052-.312-.113-.552-.33-.672-.693-.114-.352-.425-.59-.85-.745l-.264-6.938c.425.154.733.393.85.744.12.363.36.58.672.692.06.023.12.04.184.056"/></g></g><path fill="#003C5F" d="M153.2 92.903l.263 6.937-2.342-1.77-.262-6.935z"/><path fill="#004065" d="M156.343 94.15l.264 6.938-3.144-1.248-.264-6.937z"/><g enable-background="new"><defs><path id="ak" d="M138.377 99.514l.264 6.937c-.04-1.065-.24-1.743-.256-1.802l-.265-6.938c.02.06.217.736.26 1.804z"/></defs><clipPath id="al"><use xlink:href="#ak" overflow="visible"/></clipPath><path fill="#003D61" d="M138.377 99.514l.264 6.937c-.04-1.065-.24-1.743-.256-1.802l-.265-6.938c.02.06.217.736.26 1.804" clip-path="url(#al)" enable-background="new"/></g><path fill="#003B5E" d="M135.397 107.22l.264 6.933-.63-1.25-.26-6.934z"/><path fill="#004A75" d="M138.193 107.215l.264 6.937h-2.796l-.262-6.933z"/><path fill="#006AA8" d="M85.806 127.264c.012.006.02.033.022.08l-.01-.002c-.042-.018-.057-.035-.04-.06.012-.013.02-.02.028-.018z"/><path fill="#003C5F" d="M137.64 112.002l.26 6.937-2.125-1.488-.263-6.935z"/><path fill="#005180" d="M143.172 110.348l.264 6.936-5.535 1.655-.26-6.94z"/><path fill="#003B5E" d="M138.652 115.225l.265 6.936-.177-1.483-.263-6.938z"/><g enable-background="new"><defs><path id="am" d="M191.81 92.954c.09 2.312.177 4.625.265 6.937.013.336-.215.695-.836 1.17-2.603 1.99-14.42 13.93-14.196 19.797l-.265-6.938c-.224-5.866 11.595-17.805 14.194-19.798.62-.473.847-.832.835-1.166z"/></defs><clipPath id="an"><use xlink:href="#am" overflow="visible"/></clipPath><g clip-path="url(#an)" enable-background="new"><path fill="#004770" d="M191.81 92.954l.265 6.937c0 .043-.002.084-.008.125l-.263-6.937c.006-.04.008-.082.006-.123"/><path fill="#004974" d="M191.804 93.077l.263 6.937c-.007.052-.02.103-.037.154l-.265-6.937c.018-.05.03-.1.04-.152"/><path fill="#004C78" d="M191.765 93.232l.265 6.938c-.027.075-.068.153-.123.235l-.265-6.937c.055-.08.096-.16.123-.236"/><path fill="#004E7B" d="M191.642 93.47l.265 6.935c-.133.195-.35.41-.668.654-1.733 1.326-7.556 7.066-11.185 12.484l-.264-6.937c3.63-5.418 9.45-11.16 11.184-12.487.32-.243.535-.457.667-.65"/><path fill="#004C78" d="M179.792 106.61l.264 6.937c-1.108 1.655-2.014 3.28-2.532 4.742l-.265-6.94c.52-1.46 1.422-3.085 2.53-4.742"/><path fill="#004974" d="M177.26 111.353l.264 6.937c-.21.586-.355 1.145-.43 1.668l-.264-6.937c.074-.523.22-1.08.43-1.666"/><path fill="#004770" d="M176.83 113.02l.265 6.938c-.044.312-.062.613-.05.9l-.266-6.938c-.01-.287.006-.588.05-.9"/></g></g><path fill="#005485" d="M105.398 117.188l.264 6.935-2.85 1.612-.263-6.936z"/><g enable-background="new"><defs><path id="ao" d="M85.772 127.3l-.264-6.936c0-.006.002-.012.007-.02.01-.015.02-.02.027-.02l.264 6.94c-.007-.003-.017.003-.028.018-.004.007-.007.013-.006.02z"/></defs><clipPath id="ap"><use xlink:href="#ao" overflow="visible"/></clipPath><g clip-path="url(#ap)" enable-background="new"><path fill="#003D61" d="M85.542 120.327l.264 6.937-.264-6.937"/><path fill="#004065" d="M85.542 120.327l.263 6.937-.265-6.937h.002"/><path fill="#004269" d="M85.54 120.327l.264 6.937-.265-6.937"/><path fill="#00446C" d="M85.54 120.327l.263 6.937-.265-6.937"/><path fill="#004770" d="M85.538 120.327l.263 6.937-.262-6.937"/><path fill="#004974" d="M85.537 120.327l.263 6.937-.265-6.936h.002"/><path fill="#004C78" d="M85.535 120.328l.264 6.936-.005.002-.264-6.937.004-.003"/><path fill="#004E7B" d="M85.532 120.33l.264 6.936c-.005.003-.01.01-.018.018v.002l-.264-6.938v-.002c.007-.008.013-.014.018-.017"/><path fill="#004C78" d="M85.514 120.348l.263 6.936-.004.01-.263-6.938.004-.008"/><path fill="#004974" d="M85.51 120.356l.263 6.937v.004l-.265-6.935.002-.006"/><path fill="#004770" d="M85.508 120.362l.264 6.935v.004l-.264-6.935v-.002"/></g></g><g enable-background="new"><defs><path id="aq" d="M85.565 120.407l.264 6.937c-.005-.047-.01-.074-.024-.08l-.264-6.937c.012.005.02.034.022.08z"/></defs><clipPath id="ar"><use xlink:href="#aq" overflow="visible"/></clipPath><path fill="#003D61" d="M85.565 120.407l.264 6.937c-.005-.047-.01-.074-.024-.08l-.264-6.937c.012.005.02.034.022.08" clip-path="url(#ar)" enable-background="new"/></g><g enable-background="new"><defs><path id="as" d="M85.566 120.434l.264 6.937v-.022l-.265-6.938v.024z"/></defs><clipPath id="at"><use xlink:href="#as" overflow="visible"/></clipPath><path fill="#003D61" d="M85.566 120.434l.264 6.937v-.022l-.265-6.938v.024" clip-path="url(#at)" enable-background="new"/></g><path fill="#003B5E" d="M132.6 118.937l.26 6.935-1.858-2.82-.264-6.936z"/><path fill="#004D7A" d="M93.528 122.955l.264 6.936-8.413 1.013-.265-6.937z"/><path fill="#003B5E" d="M94.665 127.543l.263 6.937-1.136-4.59-.264-6.935zm26.43-.263l.264 6.937-.318-2.455-.263-6.937z"/><path fill="#004A75" d="M118.776 124.705l.264 6.936-.67 3.427-.264-6.937z"/><path fill="#003B5E" d="M127.798 128.803l.264 6.936-3.57-5.073-.264-6.935z"/><g enable-background="new"><defs><path id="au" d="M183.9 123.61l.264 6.937c.047 1.244-.084 2.426-.05 3.377l-.263-6.937c-.033-.953.098-2.132.05-3.377z"/></defs><clipPath id="av"><use xlink:href="#au" overflow="visible"/></clipPath><path fill="#004770" d="M183.9 123.61l.264 6.937c.047 1.244-.084 2.426-.05 3.377l-.263-6.937c-.033-.953.098-2.132.05-3.377" clip-path="url(#av)" enable-background="new"/></g><path fill="#003B5E" d="M53.766 139.055l.263 6.936-1.558-1.686-.264-6.937zm.167 3.422l.263 6.935-.167-3.42-.265-6.937z"/><g enable-background="new"><defs><path id="aw" d="M187.062 134.014l.265 6.937c.02.578-.233.998-.93 1.146-2.477.528-5.723-.314-5.615 3.12l.006.19-.264-6.94-.007-.187c-.106-3.437 3.14-2.593 5.615-3.12.696-.15.952-.57.93-1.145z"/></defs><clipPath id="ax"><use xlink:href="#aw" overflow="visible"/></clipPath><g clip-path="url(#ax)" enable-background="new"><path fill="#004770" d="M187.062 134.014l.265 6.937c.002.09 0 .177-.012.257l-.264-6.937c.013-.082.015-.167.013-.256"/><path fill="#004974" d="M187.05 134.27l.265 6.936c-.01.08-.027.158-.053.23l-.264-6.938c.025-.072.044-.148.053-.23"/><path fill="#004C78" d="M186.998 134.498l.265 6.938c-.026.072-.062.142-.103.205l-.265-6.935c.043-.063.077-.133.103-.206"/><path fill="#004E7B" d="M186.896 134.704l.265 6.937c-.075.117-.18.215-.316.293l-.264-6.938c.134-.078.238-.175.316-.29"/><path fill="#004C78" d="M186.578 134.994l.264 6.938c-.072.04-.154.076-.245.106l-.265-6.937c.09-.03.173-.064.246-.105"/><path fill="#004974" d="M186.332 135.103l.265 6.937c-.062.02-.13.038-.2.055l-.072.015-.264-6.937.074-.016c.07-.016.137-.035.2-.054"/><path fill="#004770" d="M186.06 135.17l.265 6.938c-.316.064-.646.105-.977.14l-.264-6.937c.332-.03.66-.074.976-.14"/><path fill="#00446C" d="M185.084 135.31l.264 6.938c-.536.054-1.08.08-1.6.134l-.264-6.937c.52-.052 1.064-.082 1.6-.134"/><path fill="#004770" d="M183.486 135.444l.264 6.937c-.3.03-.594.07-.87.125l-.263-6.937c.276-.055.568-.094.87-.123"/><path fill="#004974" d="M182.617 135.567l.264 6.937c-.174.036-.344.078-.506.13l-.264-6.935c.16-.055.33-.097.507-.134"/><path fill="#004C78" d="M182.11 135.698l.263 6.937c-.166.055-.323.12-.47.197l-.265-6.938c.147-.077.305-.142.47-.196"/><path fill="#004E7B" d="M181.64 135.896l.263 6.937c-.287.152-.53.354-.72.63l-.263-6.938c.187-.275.432-.478.72-.63"/><path fill="#004C78" d="M180.92 136.524l.264 6.937c-.097.145-.18.307-.242.488l-.264-6.938c.064-.183.146-.344.242-.486"/><path fill="#004974" d="M180.678 137.01l.264 6.938c-.06.17-.104.36-.132.572l-.263-6.938c.027-.212.072-.4.13-.572"/><path fill="#004770" d="M180.547 137.582l.263 6.938c-.026.21-.036.44-.028.693l.006.188-.264-6.935-.007-.188c-.008-.253.003-.485.03-.694"/></g></g><path fill="#005180" d="M62.847 143.278l.263 6.937-4.236 1.21-.263-6.938z"/><path fill="#003F64" d="M58.61 144.487l.264 6.937-4.678-2.012-.263-6.935z"/><path fill="#004066" d="M67.76 145.16l.262 6.938-4.912-1.883-.263-6.937z"/><path fill="#004F7E" d="M71.232 151.32l.264 6.936-2.812.605-.264-6.935z"/><path fill="#004269" d="M68.42 151.924l.264 6.937-3.817-1.08-.264-6.935z"/><path fill="#003C5F" d="M73.366 152.807l.264 6.936-2.134-1.487-.264-6.937z"/><path fill="#003B5E" d="M25.335 170.493c.007-.004.01-.006.012-.005l-.02.016c0-.004.002-.008.008-.01z"/><path fill="#00456E" d="M49.92 157.217l.265 6.936.02 2.656-.265-6.94z"/><g enable-background="new"><defs><path id="ay" d="M25.083 163.553l.145 3.813.013.35c.01.206.02.483.028.69.007.21.02.486.026.693.018.462.053.924.053 1.387l-.263-6.935z"/></defs><clipPath id="az"><use xlink:href="#ay" overflow="visible"/></clipPath><path fill="#003D61" d="M25.083 163.553l.264 6.935-.264-6.935" clip-path="url(#az)" enable-background="new"/></g><g enable-background="new"><defs><path id="aA" d="M25.083 163.553l.264 6.937s-.005 0-.012.005l-.264-6.938c.01-.004.014-.006.014-.004z"/></defs><clipPath id="aB"><use xlink:href="#aA" overflow="visible"/></clipPath><g clip-path="url(#aB)" enable-background="new"><path fill="#003D61" d="M25.083 163.553l.264 6.935-.264-6.935"/><path fill="#004065" d="M25.083 163.553l.264 6.935-.264-6.935"/><path fill="#004269" d="M25.083 163.553l.264 6.934-.264-6.934"/><path fill="#00446C" d="M25.083 163.553l.264 6.934-.264-6.934"/><path fill="#004770" d="M25.083 163.553l.264 6.934-.264-6.934"/><path fill="#004974" d="M25.083 163.553l.263 6.935-.264-6.935"/><path fill="#004C78" d="M25.082 163.553l.264 6.935-.005.002-.262-6.935.005-.002"/><path fill="#004E7B" d="M25.077 163.555l.264 6.935-.004.003-.263-6.936.005-.002"/></g></g><g enable-background="new"><defs><path id="aC" d="M25.328 170.502l-.263-6.938c0-.002.002-.005.007-.008l.264 6.937c-.006.002-.008.005-.008.01z"/></defs><clipPath id="aD"><use xlink:href="#aC" overflow="visible"/></clipPath><g clip-path="url(#aD)" enable-background="new"><path fill="#004C78" d="M25.072 163.557l.263 6.936-.264-6.934.003-.004"/><path fill="#004E7B" d="M25.07 163.56l.264 6.934-.005.004-.266-6.936.006-.003"/><path fill="#004C78" d="M25.065 163.562l.264 6.936-.003.002-.264-6.936v-.002"/><path fill="#004974" d="M25.064 163.564l.264 6.936-.264-6.935"/><path fill="#004770" d="M25.064 163.565l.264 6.935v.002l-.264-6.937"/></g></g><path fill="#003B5E" d="M74.502 162.194l.264 6.937-2.423-4.35-.264-6.937z"/><path fill="#00507F" d="M84.808 161.454l.264 6.937-6.37 1.66-.264-6.937z"/><path fill="#00436B" d="M78.438 163.112l.263 6.937-3.933-.92-.264-6.937z"/><path fill="#003D60" d="M87.323 162.987l.264 6.935-2.515-1.53-.264-6.938z"/><g enable-background="new"><defs><path id="aE" d="M180.758 142.588l.264 6.936c.1 2.625-.076 5.012-1.596 4.98-2.39-.05-3.82-1.657-3.777 1.616.03 3.27-.47 11.65-5.226 11.276l-.265-6.937c4.753.37 5.257-8.01 5.223-11.28-.043-3.27 1.392-1.663 3.778-1.616 1.52.033 1.696-2.354 1.597-4.977z"/></defs><clipPath id="aF"><use xlink:href="#aE" overflow="visible"/></clipPath><g clip-path="url(#aF)" enable-background="new"><path fill="#004770" d="M180.758 142.588l.264 6.936c.038 1.02.035 2.002-.07 2.822l-.265-6.938c.106-.818.11-1.802.07-2.82"/><path fill="#004974" d="M180.687 145.408l.265 6.938c-.05.39-.125.74-.23 1.04l-.262-6.935c.102-.3.176-.652.227-1.04"/><path fill="#004C78" d="M180.46 146.45l.262 6.937c-.073.218-.165.408-.272.567l-.265-6.937c.107-.158.198-.35.274-.566"/><path fill="#004E7B" d="M180.184 147.02l.264 6.936c-.12.178-.264.316-.434.41l-.263-6.938c.17-.094.313-.233.435-.41"/><path fill="#004C78" d="M179.75 147.428l.264 6.938c-.05.027-.104.053-.158.07l-.264-6.936c.056-.02.11-.045.16-.072"/><path fill="#004974" d="M179.592 147.5l.264 6.937c-.047.017-.097.03-.146.04l-.264-6.937c.05-.01.1-.024.146-.04"/><path fill="#004770" d="M179.445 147.54l.264 6.937c-.04.01-.08.015-.124.02l-.265-6.938c.044-.006.085-.01.124-.02"/><path fill="#00446C" d="M179.322 147.56l.265 6.936c-.04.005-.084.007-.13.007l-.264-6.937c.045 0 .088-.003.13-.007"/><path fill="#004269" d="M179.193 147.565l.265 6.937h-.03c-.163-.004-.32-.015-.477-.03l-.26-6.937c.15.016.31.026.473.03h.03"/><path fill="#004065" d="M178.69 147.534l.26 6.937c-.862-.086-1.58-.34-2.126-.394l-.264-6.937c.545.055 1.264.307 2.13.395"/><path fill="#004269" d="M176.56 147.14l.265 6.936c-.07-.007-.137-.01-.2-.01l-.263-6.94c.062 0 .128.005.2.013"/><path fill="#00446C" d="M176.36 147.127l.263 6.938c-.04 0-.08.002-.12.006l-.263-6.936c.04-.004.078-.004.12-.006"/><path fill="#004770" d="M176.24 147.133l.264 6.938c-.037.006-.072.01-.107.018l-.264-6.937c.034-.006.07-.012.107-.016"/><path fill="#004974" d="M176.132 147.15l.264 6.936-.094.025-.265-6.936c.03-.01.063-.018.095-.024"/><path fill="#004C78" d="M176.04 147.174l.263 6.938c-.045.016-.087.033-.127.057l-.264-6.94c.04-.024.082-.04.127-.057"/><path fill="#004E7B" d="M175.912 147.23l.264 6.938c-.09.05-.17.123-.236.22l-.264-6.936c.066-.098.146-.172.236-.222"/><path fill="#004C78" d="M175.675 147.45l.265 6.94c-.054.075-.1.167-.138.278l-.265-6.937c.04-.11.086-.2.138-.28"/><path fill="#004974" d="M175.54 147.732l.263 6.938c-.05.14-.086.307-.11.508l-.266-6.938c.026-.202.063-.37.112-.508"/><path fill="#004770" d="M175.426 148.24l.264 6.936c-.033.256-.047.567-.04.942.01 1.028-.034 2.562-.245 4.17l-.264-6.935c.214-1.608.256-3.145.245-4.172-.005-.372.01-.684.042-.94"/><path fill="#004974" d="M175.14 153.354l.265 6.937c-.152 1.174-.396 2.385-.773 3.47l-.264-6.94c.376-1.082.62-2.293.773-3.465"/><path fill="#004C78" d="M174.367 156.82l.264 6.938c-.24.697-.54 1.344-.91 1.892l-.262-6.937c.367-.55.666-1.193.91-1.893"/><path fill="#004E7B" d="M173.457 158.713l.264 6.936c-.4.6-.882 1.08-1.46 1.387l-.265-6.937c.578-.307 1.06-.788 1.463-1.387"/><path fill="#004C78" d="M171.994 160.1l.264 6.938c-.155.082-.316.15-.484.207l-.265-6.938c.166-.055.33-.125.483-.207"/><path fill="#004974" d="M171.508 160.307l.264 6.938c-.11.037-.227.068-.345.094l-.265-6.94c.12-.026.234-.057.346-.094"/><path fill="#004770" d="M171.164 160.4l.264 6.938c-.11.022-.227.04-.345.053l-.265-6.935c.12-.013.233-.03.346-.054"/><path fill="#00446C" d="M170.818 160.453l.265 6.936c-.116.01-.235.017-.358.017l-.263-6.937c.122 0 .24-.005.356-.017"/><path fill="#004269" d="M170.46 160.47l.264 6.938c-.098 0-.196-.004-.3-.012l-.264-6.937c.103.006.203.01.3.01"/></g></g><path fill="#003B5E" d="M88.835 164.557l.264 6.935-1.514-1.57-.264-6.935z"/><g enable-background="new"><defs><path id="aG" d="M170.162 160.46l.264 6.936c-4.758-.367-7.002 1.263-7.12 1.348l-.264-6.937c.118-.086 2.362-1.715 7.12-1.348z"/></defs><clipPath id="aH"><use xlink:href="#aG" overflow="visible"/></clipPath><g clip-path="url(#aH)" enable-background="new"><path fill="#004269" d="M170.162 160.46l.264 6.936c-.5-.04-.975-.056-1.42-.054l-.264-6.938c.446 0 .92.016 1.42.055"/><path fill="#00446C" d="M168.742 160.404l.265 6.938c-.53.002-1.02.027-1.474.074l-.264-6.938c.452-.043.942-.072 1.47-.074"/><path fill="#004770" d="M167.27 160.48l.264 6.936c-.465.047-.893.113-1.278.192l-.265-6.937c.388-.075.815-.143 1.28-.19"/><path fill="#004974" d="M165.99 160.672l.265 6.937c-.455.09-.856.2-1.203.313l-.265-6.938c.347-.113.748-.222 1.203-.314"/><path fill="#004C78" d="M164.787 160.987l.265 6.937c-.535.176-.942.36-1.23.51l-.264-6.937c.286-.15.694-.336 1.23-.51"/><path fill="#004E7B" d="M163.557 161.496l.264 6.938c-.312.164-.482.287-.514.31l-.264-6.937c.032-.023.202-.146.517-.31"/></g></g><g enable-background="new"><defs><path id="aI" d="M163.262 169.372l-.264-6.937c-.008-.202.006-.412.043-.63l.266 6.937c-.037.22-.05.428-.043.63z"/></defs><clipPath id="aJ"><use xlink:href="#aI" overflow="visible"/></clipPath><g clip-path="url(#aJ)" enable-background="new"><path fill="#004974" d="M163.042 161.807l.264 6.937-.02.123-.263-6.937c.004-.04.012-.082.02-.123"/><path fill="#004770" d="M163.023 161.93l.264 6.937c-.023.175-.03.343-.024.507l-.265-6.937c-.006-.165.002-.333.025-.507"/></g></g><g enable-background="new"><defs><path id="aK" d="M14.866 169.428l.264 6.937c-.11-2.882-5.448-5.22-5.787-5.367l-.264-6.936c.336.147 5.675 2.483 5.785 5.366z"/></defs><clipPath id="aL"><use xlink:href="#aK" overflow="visible"/></clipPath><path fill="#003D61" d="M14.866 169.428l.264 6.937c-.11-2.882-5.448-5.22-5.787-5.367l-.264-6.936c.336.147 5.675 2.483 5.785 5.366" clip-path="url(#aL)" enable-background="new"/></g><g enable-background="new"><defs><path id="aM" d="M31.258 168.63l.263 6.94c-.67.4-4.02 2.083-4.195 2.17l-.263-6.937c.177-.088 3.527-1.77 4.198-2.172z"/></defs><clipPath id="aN"><use xlink:href="#aM" overflow="visible"/></clipPath><g clip-path="url(#aN)" enable-background="new"><path fill="#004E7B" d="M31.258 168.63l.263 6.94c-.182.11-.57.317-1.036.56l-.264-6.937c.468-.244.853-.45 1.038-.562"/><path fill="#004C78" d="M30.22 169.194l.263 6.937c-1.234.648-3.03 1.55-3.16 1.61l-.262-6.937c.13-.063 1.926-.964 3.16-1.608"/></g></g><g enable-background="new"><defs><path id="aO" d="M27.06 170.803l.264 6.938c-.06-.087-1.18-1.784-2.75-2.353-.783-.287-1.664-.27-2.543.43l-.26-6.936c.877-.7 1.76-.716 2.542-.43 1.57.57 2.69 2.266 2.75 2.354z"/></defs><clipPath id="aP"><use xlink:href="#aO" overflow="visible"/></clipPath><g clip-path="url(#aP)" enable-background="new"><path fill="#003D61" d="M27.06 170.803l.264 6.938c-.06-.087-1.18-1.784-2.75-2.353-.115-.043-.234-.078-.354-.106l-.264-6.936c.12.027.24.062.355.105 1.57.57 2.69 2.266 2.75 2.354"/><path fill="#004065" d="M23.957 168.34l.264 6.938c-.106-.023-.217-.043-.33-.055l-.262-6.938c.11.012.22.03.33.055"/><path fill="#004269" d="M23.627 168.285l.264 6.938c-.082-.01-.166-.014-.25-.014l-.265-6.938c.084 0 .17.005.253.012"/><path fill="#00446C" d="M23.374 168.274l.264 6.937c-.076 0-.152.006-.23.014l-.263-6.937c.076-.008.152-.012.23-.012"/><path fill="#004770" d="M23.145 168.285l.263 6.936c-.077.01-.154.023-.23.037l-.265-6.937c.078-.015.155-.027.232-.035"/><path fill="#004974" d="M22.914 168.32l.264 6.938c-.088.02-.177.04-.266.07l-.264-6.938c.09-.028.178-.052.266-.07"/><path fill="#004C78" d="M22.648 168.39l.264 6.938c-.13.043-.262.1-.394.168l-.263-6.937c.13-.073.263-.127.393-.17"/><path fill="#004E7B" d="M22.254 168.56l.263 6.936c-.162.084-.324.19-.486.318l-.26-6.937c.16-.13.323-.233.485-.318"/></g></g><g enable-background="new"><defs><path id="aQ" d="M21.768 168.877l.263 6.937c-2.64 2.1-7.436 2.485-7.69 2.506l-.262-6.937c.253-.02 5.05-.408 7.69-2.506z"/></defs><clipPath id="aR"><use xlink:href="#aQ" overflow="visible"/></clipPath><g clip-path="url(#aR)" enable-background="new"><path fill="#004E7B" d="M21.768 168.877l.263 6.937c-.38.303-.803.57-1.253.805l-.263-6.94c.45-.236.874-.5 1.255-.804"/><path fill="#004C78" d="M20.513 169.682l.263 6.937c-.615.32-1.276.582-1.932.8l-.264-6.94c.656-.215 1.317-.48 1.933-.8"/><path fill="#004974" d="M18.58 170.48l.265 6.938c-.74.24-1.473.42-2.126.553l-.266-6.935c.653-.133 1.386-.313 2.126-.554"/><path fill="#004770" d="M16.455 171.033l.264 6.936c-.96.193-1.748.287-2.133.326l-.264-6.938c.385-.04 1.173-.13 2.13-.327"/><path fill="#00446C" d="M14.324 171.36l.264 6.937c-.133.015-.218.02-.246.022l-.264-6.94c.028 0 .113-.01.246-.02"/></g></g><g enable-background="new"><defs><path id="aS" d="M45.478 181.992l.264 6.936c-.763-.472-12.875-12.87-14.22-13.36l-.263-6.937c1.342.49 13.454 12.89 14.217 13.363z"/></defs><clipPath id="aT"><use xlink:href="#aS" overflow="visible"/></clipPath><path fill="#003D61" d="M45.478 181.992l.264 6.936c-.763-.472-12.875-12.87-14.22-13.36l-.263-6.937c1.342.49 13.454 12.89 14.217 13.363" clip-path="url(#aT)" enable-background="new"/></g><g enable-background="new"><defs><path id="aU" d="M59.77 174.97l.264 6.936c-.667.37-13.33 7.375-14.292 7.022l-.264-6.936c.963.352 13.625-6.654 14.292-7.023z"/></defs><clipPath id="aV"><use xlink:href="#aU" overflow="visible"/></clipPath><g clip-path="url(#aV)" enable-background="new"><path fill="#004E7B" d="M59.77 174.97l.264 6.936c-.323.18-3.457 1.912-6.713 3.614l-.262-6.938c3.257-1.7 6.39-3.435 6.713-3.613"/><path fill="#004C78" d="M53.057 178.582l.264 6.938c-2.76 1.443-5.614 2.863-6.913 3.292l-.264-6.937c1.3-.43 4.15-1.848 6.915-3.293"/><path fill="#004974" d="M46.142 181.875l.264 6.937c-.134.045-.252.077-.35.1l-.265-6.937c.1-.023.22-.055.353-.1"/><path fill="#004770" d="M45.792 181.975l.264 6.938c-.048.01-.092.02-.13.023l-.265-6.938c.04-.005.084-.012.133-.023"/><path fill="#00446C" d="M45.66 181.998l.264 6.938-.062.006-.264-6.938c.02 0 .04-.002.062-.006"/><path fill="#004269" d="M45.598 182.004l.264 6.938h-.053l-.266-6.938c.017.002.034.002.053 0"/><path fill="#004065" d="M45.545 182.004l.264 6.938c-.02 0-.033-.003-.046-.006l-.264-6.938c.014.004.03.006.045.006"/><path fill="#003D61" d="M45.5 181.998l.264 6.938c-.008-.002-.016-.004-.023-.008l-.262-6.936.024.006"/></g></g><g enable-background="new"><defs><path id="aW" d="M187.705 179.244l.265 6.938c.02.498-.008.996-.085 1.492l-.264-6.937c.078-.497.105-.995.086-1.493z"/></defs><clipPath id="aX"><use xlink:href="#aW" overflow="visible"/></clipPath><g clip-path="url(#aX)" enable-background="new"><path fill="#004770" d="M187.705 179.244l.265 6.938c.017.44-.003.88-.062 1.32l-.264-6.937c.06-.438.078-.88.06-1.32"/><path fill="#004974" d="M187.645 180.566l.264 6.938c-.01.058-.018.113-.025.172l-.264-6.938.024-.172"/></g></g><g enable-background="new"><defs><path id="aY" d="M81.958 189.766l.264 6.936c-1.832-.663-21.17-14.09-22.188-14.796l-.264-6.937c1.018.705 20.355 14.132 22.188 14.795z"/></defs><clipPath id="aZ"><use xlink:href="#aY" overflow="visible"/></clipPath><path fill="#003D61" d="M81.958 189.766l.264 6.936c-1.832-.663-21.17-14.09-22.188-14.796l-.264-6.937c1.018.705 20.355 14.132 22.188 14.795" clip-path="url(#aZ)" enable-background="new"/></g><g enable-background="new"><defs><path id="ba" d="M84.726 187.104l.264 6.937c-.078.148-1.55 2.907-2.768 2.66l-.264-6.934c1.218.245 2.69-2.515 2.768-2.66z"/></defs><clipPath id="bb"><use xlink:href="#ba" overflow="visible"/></clipPath><g clip-path="url(#bb)" enable-background="new"><path fill="#004C78" d="M84.726 187.104l.264 6.937c-.028.055-.24.45-.555.924l-.264-6.938c.317-.472.53-.87.557-.92"/><path fill="#004E7B" d="M84.17 188.025l.264 6.938c-.395.588-.952 1.297-1.52 1.603l-.265-6.937c.567-.31 1.125-1.018 1.52-1.606"/><path fill="#004C78" d="M82.65 189.627l.264 6.938c-.073.04-.146.07-.22.097l-.262-6.937c.072-.026.145-.06.218-.098"/><path fill="#004974" d="M82.43 189.725l.264 6.937c-.044.015-.088.027-.132.036l-.264-6.938c.045-.008.09-.022.133-.035"/><path fill="#004770" d="M82.3 189.76l.263 6.938c-.03.007-.062.012-.093.016l-.264-6.938c.03-.004.062-.008.093-.016"/><path fill="#00446C" d="M82.206 189.775l.264 6.938c-.03.002-.06.004-.09.004l-.265-6.937c.03 0 .06-.002.09-.005"/><path fill="#004269" d="M82.115 189.78l.264 6.937c-.03 0-.06-.002-.09-.006l-.263-6.934c.028.003.057.004.087.004"/><path fill="#004065" d="M82.027 189.776l.264 6.937c-.02-.002-.045-.007-.07-.012l-.262-6.934c.023.005.047.008.07.01"/></g></g><path fill="#004065" d="M96.952 192.17l.264 6.936-12.227-5.065-.265-6.935z"/><path fill="#004D7A" d="M98.446 187.82l.263 6.936-1.495 4.35-.264-6.936z"/><g enable-background="new"><defs><path id="bc" d="M187.62 180.737l.265 6.937c-1.146 7.33-19.744 11.4-20.725 11.614l-.264-6.937c.98-.21 19.577-4.28 20.725-11.612z"/></defs><clipPath id="bd"><use xlink:href="#bc" overflow="visible"/></clipPath><g clip-path="url(#bd)" enable-background="new"><path fill="#004974" d="M187.62 180.737l.265 6.937c-.047.3-.122.592-.225.877l-.264-6.934c.102-.287.178-.58.225-.878"/><path fill="#004C78" d="M187.396 181.615l.264 6.936c-.168.477-.407.936-.71 1.38l-.264-6.94c.302-.442.543-.9.71-1.374"/><path fill="#004E7B" d="M186.687 182.99l.265 6.938c-1.18 1.734-3.297 3.242-5.723 4.51l-.266-6.936c2.426-1.27 4.543-2.775 5.722-4.512"/><path fill="#004C78" d="M180.965 187.502l.264 6.936c-2.367 1.236-5.027 2.246-7.394 3.02l-.265-6.938c2.368-.774 5.028-1.783 7.394-3.018"/><path fill="#004974" d="M173.574 190.52l.264 6.937c-3.47 1.132-6.31 1.753-6.678 1.833l-.264-6.937c.368-.08 3.21-.703 6.678-1.833"/></g></g><path fill="#003D60" d="M166.896 192.353l.264 6.935-3.832-2.415-.264-6.935z"/><g enable-background="new"><defs><path id="be" d="M141.688 200.516l-.264-6.938c0-.03.02-.06.064-.076l.265 6.937c-.044.015-.065.042-.065.075z"/></defs><clipPath id="bf"><use xlink:href="#be" overflow="visible"/></clipPath><g clip-path="url(#bf)" enable-background="new"><path fill="#004C78" d="M141.49 193.502l.265 6.937c-.016.004-.026.01-.036.02l-.267-6.94c.01-.007.022-.013.036-.02"/><path fill="#004974" d="M141.454 193.52l.265 6.94c-.02.013-.028.027-.03.046l-.264-6.938c0-.017.01-.034.027-.047"/><path fill="#004770" d="M141.426 193.568l.263 6.936-.003.012-.263-6.937v-.013"/></g></g><path fill="#004C78" d="M163.738 193.24l.263 6.938-4.144.326-.263-6.937z"/><g enable-background="new"><defs><path id="bg" d="M153.45 198.168c-.09-2.312-.177-4.625-.265-6.938-.003-.066.688.163 1.615.5 1.898.69 4.646 1.78 4.79 1.836l.265 6.938c-.145-.058-2.894-1.146-4.79-1.836-.928-.338-1.62-.566-1.616-.5z"/></defs><clipPath id="bh"><use xlink:href="#bg" overflow="visible"/></clipPath><g clip-path="url(#bh)" enable-background="new"><path fill="#003D61" d="M159.592 193.567l.264 6.937c-.145-.057-2.894-1.145-4.79-1.834-.683-.248-1.236-.438-1.48-.496l-.265-6.937c.247.058.8.247 1.48.495 1.9.69 4.648 1.778 4.793 1.835"/><path fill="#004065" d="M153.32 191.237l.266 6.937c-.036-.008-.065-.014-.088-.016l-.264-6.938c.023.003.05.01.087.017"/><path fill="#004269" d="M153.234 191.22l.264 6.94-.02-.003-.265-6.938h.02"/><path fill="#00446C" d="M153.214 191.22l.264 6.935h-.01l-.264-6.934h.01"/><path fill="#004770" d="M153.204 191.22l.264 6.935h-.007l-.262-6.934h.007"/><path fill="#004974" d="M153.197 191.22l.264 6.936-.004.002-.264-6.935.007-.002"/><path fill="#004C78" d="M153.19 191.223l.265 6.935-.004.003-.26-6.934.002-.002"/><path fill="#004E7B" d="M153.188 191.225l.263 6.936v.003l-.262-6.935v-.002"/><path fill="#004C78" d="M153.187 191.227l.263 6.935v.002l-.264-6.935v-.004"/><path fill="#004974" d="M153.186 191.23l.263 6.934v.002l-.265-6.936"/><path fill="#004770" d="M153.186 191.23l.263 6.936v.002l-.265-6.937"/></g></g><path fill="#003B5E" d="M105.267 197.64l.263 6.935-6.82-9.82-.264-6.935z"/><path fill="#005485" d="M156.457 193.65l.263 6.938-5.342 2.743-.263-6.933z"/><g enable-background="new"><defs><path id="bi" d="M151.115 196.396l.264 6.937c-.443-.16-8.83-3.214-9.626-2.894l-.265-6.94c.794-.32 9.182 2.734 9.624 2.895z"/></defs><clipPath id="bj"><use xlink:href="#bi" overflow="visible"/></clipPath><g clip-path="url(#bj)" enable-background="new"><path fill="#003D61" d="M151.115 196.396l.264 6.937c-.36-.13-5.99-2.18-8.497-2.764l-.265-6.938c2.507.582 8.135 2.63 8.495 2.763"/><path fill="#004065" d="M142.62 193.633l.264 6.936c-.302-.07-.558-.12-.754-.143l-.265-6.938c.197.023.453.07.754.142"/><path fill="#004269" d="M141.865 193.49l.265 6.938c-.077-.01-.146-.015-.204-.014l-.265-6.937c.06.002.13.005.206.013"/><path fill="#00446C" d="M141.66 193.48l.266 6.937c-.02 0-.04 0-.06.002l-.265-6.94h.06"/><path fill="#004770" d="M141.602 193.48l.264 6.938c-.02 0-.036.002-.052.006l-.264-6.938c.015-.003.034-.005.052-.006"/><path fill="#004974" d="M141.55 193.486l.264 6.938c-.016.002-.03.004-.043.008l-.262-6.936c.013-.005.027-.01.043-.01"/><path fill="#004C78" d="M141.507 193.495l.264 6.937-.015.007-.265-6.94c.005-.003.01-.005.017-.006"/></g></g><path fill="#004268" d="M118.538 201.655l.264 6.937-13.272-4.017-.263-6.936z"/><path fill="#004D7A" d="M147.643 196.555l.263 6.935-1.486 4.354-.264-6.937z"/><path fill="#003B5E" d="M122.71 207.047l.264 6.937-4.172-5.392-.264-6.937z"/><path fill="#004973" d="M137.89 207.678l.26 6.936-15.176-.63-.265-6.937z"/><path fill="#003B5E" d="M138.27 209.446l.265 6.937-.384-1.77-.26-6.935z"/><path fill="#005180" d="M143.917 207.832l.263 6.938-5.645 1.613-.264-6.937z"/><path fill="#004369" d="M150.45 209.603l.263 6.934-6.533-1.767-.263-6.938z"/><path fill="#005486" d="M157.135 203.473l.263 6.936-6.685 6.126-.264-6.934z"/><path fill="#006AA8" d="M187.62 180.737c-1.146 7.33-19.743 11.4-20.724 11.614l-3.832-2.412.674 3.304-4.146.326c-.145-.057-2.893-1.145-4.79-1.835-.95-.346-1.65-.576-1.615-.495.104.243 3.11 2.308 3.27 2.415l-5.34 2.744c-.442-.16-8.83-3.215-9.626-2.895-.785.32 5.808 2.917 6.154 3.054l-1.486 4.353 10.98 2.564-6.688 6.13-6.534-1.772-5.645 1.614-.38-1.77-15.18-.63-4.17-5.393-13.27-4.016-6.823-9.816-1.494 4.353-12.227-5.066c-.078.146-1.55 2.906-2.768 2.66-1.832-.662-21.17-14.09-22.188-14.797-.668.37-13.33 7.375-14.293 7.024-.763-.472-12.874-12.87-14.22-13.36-.67.403-4.02 2.085-4.197 2.173-.06-.09-1.18-1.786-2.75-2.356-.784-.284-1.665-.27-2.543.43-2.64 2.1-7.438 2.486-7.69 2.508 3.258-3.71-4.586-7.142-5-7.32l1.42-2.34 3.54.88 8.12 2.85c.132-.084 2.66-1.704 2.907-1.884.283.105 4.214.07 4.42.068.168-.096 3.356-1.934 3.8-1.77.44.158 1.676 1.187 1.74 1.24l9.546-1.213 1.018-3.71 4.333-.97.02 2.655 2.656.968c.3-.15 6.024-3.016 6.387-2.883.03.106.614.352 1.458.658 2.254.82 6.146 2.03 6.35 2.094l4.985 6.194c.303.055 6.053 1.09 6.38 1.207l4.048-2.502 6.632-1.05-1.512-1.57-2.515-1.53-6.37 1.658-3.936-.92-2.422-4.353 1.287-5.034-2.134-1.487-2.81.605-3.818-1.082 3.155-5.682-4.912-1.883-4.236 1.21-4.68-2.01-.166-3.423-1.556-1.687 5.047-5.604 8.182 4.3 5.477-1.772 4.565 2.166 14.833-2.752 4.35-6.164-1.137-4.588-8.412 1.01c.024-.15.487-3.023.45-3.558.582.19 5.243-.17 5.488-.188l6.883-2.184.205-5.84 4.942-1.047 2.315 6.036-2.85 1.61c.03.013.59.23 1.32.497 1.092.397 2.492.87 2.66.746.284-.198 3.015-.855 3.16-.89.015.082.333 1.654.68 2.902.14.496.54.846 1.083 1.043.82.298 1.965.25 3.02-.165.53-.206 1.132-.127 1.715.086 1.346.49 2.524 1.626 2.586 1.687l-.67 3.424 2.99-.848-.316-2.456 2.653-.567 1.206 5.436 3.16-.89-3.57-5.07 1.33-2.98 6.11-.73.93-1.085-1.86-2.818 2.59-2.015 3.944 2.053 1.378-.93-.176-1.486 4.294-1.497.4-1.894-5.532 1.655-2.127-1.485 2.682-3.302-2.797.002-.63-1.248c.133-.05 2.663-.97 3.31-3.586.647-2.62.07-4.57.04-4.674.437-.138 8.696-2.742 10.3-3.994.853-.66 2.607-.25 4.07.283 1.297.47 2.31 1.013 2.364 1.04l1.49-.89-3.145-1.245-2.342-1.77c-.123.064-2.466 1.283-3.748.815-.312-.112-.552-.33-.672-.692-.115-.352-.425-.59-.85-.744-1.812-.66-5.524.146-5.72.188l-3.67-.72c-.072-.306-1.463-6.144-1.625-6.202-.125.165-2.144 3.494-2.25 3.67l-2.996 1.05-1.1-7.126-2.436.846c-.158-.252-3.186-5.033-2.797-4.987.394.04 3.237.687 3.387.72l2.494-2.658 8.145-3.146 7.49-1.86c.002-.27.014-5.395.31-5.8.29-.4 5.344-3.886 5.61-4.07l5.552 2.733c-.176-.094-3.513-1.887-3.274-3.943.238-2.055 3.117-5.46 3.27-5.64l-12.657.696-.64 2.416-2.2 2.458-3.863.325-3.383 2.54-2.002 1.414-3.376 2.335c-.15.007-2.964.153-4.905-.554-2.148-.89-.53-2.34.365-2.425.9-.076 5.07-1.208 7.383-3.63 2.318-2.414 6.883-2.495 7.124-2.5l-.933-2.173c.275-.066 5.52-1.32 5.255-1.417-.85.064-1.89-.236-2.76-.553-.87-.316-1.533-.632-1.57-.648l6.27-.368c.16-.165 3.243-3.302 4.193-4.996l4.843-1.09 3.297-1.852 6.615-.652.497-1.447-4.31.16c-.153.02-3.086.403-3.88.525-.78.12-1.906.524-5.246 1.854-2.16.86-6.48.463-9.537-.65-1.683-.61-2.98-1.44-3.324-2.396-.688-1.902.966-1.482 2.716-.845.247.09.497.184.742.276.24.09.476.18.7.263 2.69.86 6.09-.55 6.193-1.84.09-1.288-3.692-1.653-3.527-3.22.11-1.045 1.7-.648 2.754-.264.53.194.906.374.926.383.003-.015.065-.285 1.023-1.976.42-.75 1.18-.797 2.04-.484 1.083.395 2.326 1.358 3.26 2.208.577.526 1.174.937 1.66 1.115.934.34 1.48-.17.782-2.36-.845-2.668 2.985-3.57 4.932-2.86.49.178.862.46 1.01.84.335.884 1.032 1.478 1.945 1.81 1.04.38 2.36.418 3.738.157 2.583-.483-2.073-3.3-1.686-4.788.162-.628 1.082-.472 2.12-.094.556.203 1.145.47 1.673.71.518.242.97.46 1.265.566.72-.1 5.46-4.896 4.868-7.15-.604-2.253.4-7.09 2.158-7.976.413-.205.723-.24.954-.154.765.28.708 1.835.81 2.733.072.658.585 1.38 1.04 1.545.354.128.673-.077.726-.903.096-1.52 1.672-3.35 2.688-2.98.252.092.47.32.62.72.548 1.414.777 2.21 1.548 2.49.326.12.75.145 1.336.085 1.958-.205.277-2.267.188-2.375-1.378-2.334 1.693-3.092 1.854-3.13l2.07 2.792L194 13.716c.55-1.254.86-1.757 1.217-1.628.374.136.794.974 1.585 2.376.413.73.91 1.123 1.422 1.31 1.398.508 2.803-.506 2.877-.56-5.932-5.153.46-4.726 1.345-4.405.883.32 2.644-1.08 5.397-3.335.642-.525 1.252-.607 1.808-.405 1.834.668 3.07 4.43 2.86 5.5-.272 1.398-1.25 3.23-1.303 3.328.146-.035 2.928-.695 3.846-1.447.28-.227 2.34.368 5.044 1.35 6.24 2.274 15.908 6.62 14.988 7.704-1.314 1.56-6.064 3.23-6.902 3.606-.824.374-23.615 2.54-24.297 2.704-.67.16-.767.807.41 1.235 1.177.426 3.452 1.387 2.767 1.82-.687.43-4.388 1.15-4.582 1.186-.026 0-.567 0-1.196-.23-.508-.183-1.05-.515-1.363-1.113-.123-.238-.354-.408-.66-.52-1.413-.513-4.38.248-5.4 1.438-.473.553.27 1.02 1.417 1.437.67.243 1.475.47 2.255.687.783.22 1.545.432 2.12.642.464.168.81.336.956.506 2.003.865 5.702.55 7.954.312.36-.037.697.013 1.016.13.923.335 1.688 1.227 2.492 2.137.81.9 1.658 1.824 2.76 2.225.63.17.89.25 1.2.364 4.128 1.5 16.95 8.67 14.77 11.67-2.34 3.22-5.943-.536-9.443 4.03-3.513 4.57-26.87 9.227-28.1 9.472l-2.64.808c.62.224 3.287 1.418.867 5.21-.803 1.25-1.602 1.474-2.377 1.19-.77-.28-1.517-1.056-2.224-1.817-.704-.76-1.373-1.506-1.98-1.728-2.337.722-2.42 1.702-3.788 1.203-1.23-.59-2.38-1.144-3.575-1.58-2.07-.752-4.28-1.145-4.526.49-.13.844.738 1.45 2.045 1.926 1.24.453 2.882.785 4.437 1.086 1.57.303 3.052.57 3.97.906 1.155.456 1.776.573 2.437.706.664.136 1.37.287 2.035.527 2.126.772 3.784 2.473 2.075 7.555-2.9 8.594 4.106 7.98.952 10.4-3.153 2.418-19.868 19.467-12.21 22.562 7.663 3.09 4.092 9.537 5.417 11.752 1.317 2.21 4.43 6.196 1.95 6.72-2.477.527-5.723-.316-5.615 3.12.104 3.435 1.03 9.34-1.355 9.286-2.387-.047-3.82-1.655-3.778 1.618.034 3.27-.47 11.65-5.224 11.276-4.758-.366-7.002 1.263-7.12 1.35-.464 2.685 2.808 4.266 2.98 4.35.07-.19 1.43-3.766 7.186-2.073.264.076.536.166.817.27 5.815 2.12 14.683 9.4 13.6 16.39z"/></g><ellipse fill="#EE7522" cx="86.25" cy="170.75" rx="8.062" ry="8"/></svg>