<svg xmlns="http://www.w3.org/2000/svg" width="67" height="67" viewBox="0 0 67 67"><circle id="back" fill="#fff" cx="33.5" cy="33.5" r="25.667"/><path id="front" fill="#55ACEE" d="M37.667 21.783c-2.62.953-4.274 3.41-4.086 6.1l.064 1.04-1.047-.128c-3.813-.487-7.145-2.14-9.974-4.915l-1.383-1.377-.357 1.017c-.754 2.267-.272 4.66 1.3 6.27.837.89.648 1.018-.797.488-.503-.17-.943-.296-.985-.233-.144.15.358 2.076.756 2.84.545 1.06 1.655 2.096 2.87 2.71l1.028.488-1.215.02c-1.174 0-1.216.022-1.09.468.42 1.38 2.074 2.842 3.92 3.478l1.297.444-1.13.678c-1.677.976-3.647 1.526-5.617 1.567-.945.02-1.72.105-1.72.17 0 .21 2.557 1.396 4.044 1.863 4.463 1.377 9.765.782 13.746-1.57 2.83-1.672 5.657-5 6.978-8.22.713-1.714 1.426-4.85 1.426-6.353 0-.975.062-1.102 1.236-2.267.69-.68 1.34-1.42 1.465-1.632.21-.403.188-.403-.88-.043-1.78.636-2.032.55-1.15-.402.65-.678 1.424-1.907 1.424-2.267 0-.063-.316.042-.673.233-.378.21-1.216.53-1.845.72l-1.13.36-1.028-.7c-.565-.38-1.36-.806-1.78-.933-1.07-.296-2.704-.254-3.67.085h.003zM33.5 63.5c-16.568 0-30-13.432-30-30 0-16.57 13.432-30 30-30 16.568 0 30 13.43 30 30 0 16.568-13.432 30-30 30z"/></svg>